<svg width="159" height="48" viewBox="0 0 159 48" fill="none" xmlns="http://www.w3.org/2000/svg">
<path fill-rule="evenodd" clip-rule="evenodd" d="M8.3021 33.5056C10.0499 33.5056 11.5064 32.9898 12.7445 31.9582C13.9825 30.9266 14.6379 29.4529 14.6379 27.6108V25.6951H8.08363C6.48147 25.6951 5.24343 25.9898 4.36953 26.6529C3.49562 27.3161 2.98584 28.274 2.98584 29.6003C2.98584 32.1792 4.73366 33.5056 8.3021 33.5056ZM9.17601 16.7793C6.99125 16.7793 5.17061 17.5898 3.78692 19.1372C3.34997 19.5793 2.98584 19.8003 2.54889 19.8003C2.18476 19.8003 1.89346 19.653 1.60216 19.4319C1.31086 19.1372 1.23803 18.8424 1.23803 18.474C1.23803 18.1793 1.31086 17.9582 1.45651 17.6635C2.98584 15.2319 5.60756 14.053 9.17601 14.053C11.7977 14.053 13.9097 14.7898 15.2934 16.1898C16.7499 17.5898 17.4781 19.5056 17.4781 21.8635V34.5371C17.4781 34.9056 17.3325 35.274 17.0412 35.5687C16.7499 35.8634 16.4586 36.0108 16.0216 36.0108C15.5847 36.0108 15.2934 35.8634 15.002 35.5687C14.7107 35.274 14.5651 34.9792 14.5651 34.5371V32.9161C13.9825 33.9477 13.1086 34.7582 11.9434 35.3477C10.7782 35.8634 9.46731 36.1582 8.0108 36.1582C5.53474 36.1582 3.56845 35.5687 2.18476 34.4634C0.728255 33.2845 0 31.6635 0 29.6003C0 27.6108 0.728255 25.9898 2.18476 24.8108C3.64127 23.6319 5.60756 23.1161 8.08363 23.1161H14.6379V21.8635C14.6379 20.3161 14.1281 19.0635 13.1814 18.1793C12.1619 17.2951 10.851 16.7793 9.17601 16.7793Z" fill="white"/>
<path fill-rule="evenodd" clip-rule="evenodd" d="M25.78 19.4319C24.6148 20.7582 24.0322 22.8214 24.0322 25.6213C24.0322 28.4213 24.6148 30.4845 25.78 31.8108C26.9452 33.2108 28.4745 33.874 30.4408 33.874C34.8832 33.874 37.1407 31.1476 37.1407 25.6213C37.1407 20.1687 34.8832 17.3687 30.368 17.3687C28.4017 17.4424 26.9452 18.1056 25.78 19.4319ZM21.5561 15.453C21.8474 15.1582 22.2115 15.0108 22.5756 15.0108C23.0126 15.0108 23.3039 15.1582 23.5952 15.453C23.8865 15.7477 24.0322 16.0424 24.0322 16.4845V17.9582C24.5419 17.1477 25.343 16.4108 26.4354 15.7477C27.5278 15.0845 28.8386 14.7898 30.2951 14.7898C33.3538 14.7898 35.7571 15.674 37.432 17.5161C39.107 19.3582 39.9809 22.0108 39.9809 25.6213C39.9809 29.2319 39.107 31.9582 37.432 33.8003C35.7571 35.6424 33.3538 36.5266 30.2951 36.5266C28.8386 36.5266 27.6006 36.2318 26.5082 35.5687C25.4158 34.9792 24.6148 34.2424 24.0322 33.3582V43.5266C24.0322 43.895 23.8865 44.2634 23.5952 44.5581C23.3767 44.8529 23.0126 45.0002 22.5756 45.0002C22.1387 45.0002 21.8474 44.8529 21.5561 44.5581C21.2648 44.2634 21.1191 43.9687 21.1191 43.5266V16.4845C21.1191 16.1161 21.2648 15.7477 21.5561 15.453Z" fill="white"/>
<path fill-rule="evenodd" clip-rule="evenodd" d="M46.8991 19.4319C45.7339 20.7582 45.1513 22.8214 45.1513 25.6213C45.1513 28.4213 45.7339 30.4845 46.8991 31.8108C48.0643 33.2108 49.5937 33.874 51.5599 33.874C56.0023 33.874 58.2599 31.1476 58.2599 25.6213C58.2599 20.1687 56.0023 17.3687 51.4871 17.3687C49.5208 17.4424 48.0643 18.1056 46.8991 19.4319ZM42.6752 15.453C42.9665 15.1582 43.3307 15.0108 43.6948 15.0108C44.1317 15.0108 44.423 15.1582 44.7143 15.453C45.0057 15.7477 45.1513 16.0424 45.1513 16.4845V17.9582C45.6611 17.1477 46.4622 16.4108 47.5545 15.7477C48.6469 15.0845 49.9578 14.7898 51.4143 14.7898C54.473 14.7898 56.8762 15.674 58.5512 17.5161C60.2262 19.3582 61.1001 22.0108 61.1001 25.6213C61.1001 29.2319 60.2262 31.9582 58.5512 33.8003C56.8762 35.6424 54.473 36.5266 51.4143 36.5266C49.9578 36.5266 48.7197 36.2318 47.6274 35.5687C46.535 34.9792 45.7339 34.2424 45.1513 33.3582V43.5266C45.1513 43.895 45.0057 44.2634 44.7143 44.5581C44.4959 44.8529 44.1317 45.0002 43.6948 45.0002C43.2578 45.0002 42.9665 44.8529 42.6752 44.5581C42.3839 44.2634 42.2383 43.9687 42.2383 43.5266V16.4845C42.2383 16.1161 42.3839 15.7477 42.6752 15.453Z" fill="white"/>
<path fill-rule="evenodd" clip-rule="evenodd" d="M78.6517 27.1683V20.8315C78.5789 20.6842 78.5061 20.5368 78.4333 20.3894C78.3604 20.2421 78.142 19.8736 77.7778 19.4315C77.4137 18.9894 77.0496 18.5473 76.6126 18.1789C76.1757 17.8105 75.5931 17.5157 74.9376 17.221C74.2094 16.9263 73.4811 16.7789 72.6801 16.7789C68.3834 16.7789 66.2714 19.5789 66.2714 25.1052C66.2714 30.7052 68.3834 33.5052 72.6801 33.5052C74.5007 33.5052 75.9572 32.9894 77.0496 31.8841C78.0691 30.8525 78.6517 29.2315 78.6517 27.1683ZM72.4616 14.1263C73.8453 14.1263 75.0105 14.421 76.1029 15.0105C77.1952 15.6 77.9963 16.2631 78.5789 17.1473V4.47368C78.5789 4.03158 78.7246 3.66316 79.0159 3.4421C79.3072 3.14737 79.6713 3 80.1083 3C80.5452 3 80.9093 3.14737 81.1278 3.4421C81.3463 3.73684 81.5648 4.03158 81.5648 4.47368V27.1683C81.5648 30.1157 80.7637 32.3262 79.1615 33.8736C77.5594 35.421 75.3746 36.1578 72.6801 36.1578C69.6942 36.1578 67.3638 35.2736 65.7616 33.4315C64.1595 31.5894 63.3584 28.7894 63.3584 25.1052C63.3584 17.8105 66.4171 14.1263 72.4616 14.1263Z" fill="white"/>
<path fill-rule="evenodd" clip-rule="evenodd" d="M93.5805 33.5056C98.0956 33.5056 100.353 30.7056 100.353 25.1056C100.353 19.5056 98.0956 16.7056 93.5805 16.7056C89.0653 16.7056 86.8077 19.5056 86.8077 25.1056C86.8077 30.7056 89.0653 33.5056 93.5805 33.5056ZM86.2979 16.7793C88.0457 14.9372 90.449 14.053 93.5805 14.053C96.712 14.053 99.1152 14.9372 100.863 16.7793C102.611 18.6214 103.412 21.3477 103.412 25.0319C103.412 28.7161 102.538 31.4424 100.863 33.3582C99.1152 35.2003 96.712 36.1582 93.5805 36.1582C90.5218 36.1582 88.0457 35.2003 86.3707 33.3582C84.6229 31.5161 83.749 28.7898 83.749 25.1056C83.749 21.4214 84.6229 18.6214 86.2979 16.7793Z" fill="white"/>
<path fill-rule="evenodd" clip-rule="evenodd" d="M129.047 14.0527C134.8 14.0527 137.641 16.779 137.641 22.3053V34.6842C137.641 35.1263 137.495 35.4947 137.204 35.7158C136.912 36.0105 136.548 36.1579 136.184 36.1579C135.82 36.1579 135.456 36.0105 135.165 35.7158C134.873 35.421 134.728 35.0526 134.728 34.6842V22.8948C134.728 20.9053 134.291 19.3579 133.49 18.3264C132.616 17.2948 131.159 16.7053 129.047 16.7053C127.154 16.7053 125.697 17.2211 124.751 18.179C123.804 19.1369 123.367 20.5369 123.367 22.3053V34.6842C123.367 35.1263 123.221 35.4947 122.93 35.7158C122.639 36.0105 122.274 36.1579 121.91 36.1579C121.546 36.1579 121.182 36.0105 120.891 35.7158C120.599 35.421 120.454 35.0526 120.454 34.6842V22.8948C120.454 20.9053 120.017 19.3579 119.216 18.3264C118.415 17.2948 116.958 16.779 114.846 16.779C111.132 16.779 109.239 18.9158 109.239 23.2632V34.6842C109.239 35.1263 109.093 35.4947 108.802 35.7158C108.51 36.0105 108.146 36.1579 107.782 36.1579C107.418 36.1579 107.054 36.0105 106.763 35.7158C106.471 35.421 106.326 35.0526 106.326 34.6842V15.8211C106.326 15.379 106.471 15.0106 106.763 14.7895C107.054 14.4948 107.418 14.3474 107.782 14.3474C108.146 14.3474 108.51 14.4948 108.802 14.7895C109.093 15.0843 109.239 15.4527 109.239 15.8211V17.2948C109.676 16.3369 110.404 15.6001 111.496 14.9369C112.589 14.3474 113.754 13.979 115.21 13.979C118.779 13.979 121.182 15.0843 122.42 17.2211C123.731 15.1579 125.989 14.0527 129.047 14.0527Z" fill="white"/>
<path fill-rule="evenodd" clip-rule="evenodd" d="M155.847 23.4108C155.847 18.9898 153.88 16.7793 150.021 16.7793C148.054 16.7793 146.525 17.3688 145.433 18.5477C144.34 19.7266 143.685 21.3477 143.539 23.4108H155.847ZM140.553 25.1056C140.553 21.5687 141.354 18.8424 143.029 17.0003C144.704 15.0109 147.035 14.053 150.021 14.053C151.404 14.053 152.642 14.274 153.735 14.7161C154.827 15.1582 155.628 15.674 156.284 16.3372C156.939 17.0003 157.376 17.7372 157.813 18.5477C158.177 19.3582 158.468 20.1687 158.614 20.9056C158.76 21.6424 158.832 22.3056 158.832 23.0424C158.832 23.4845 158.832 23.8529 158.76 24.074C158.76 24.2951 158.687 24.5898 158.541 24.9582C158.468 25.3266 158.25 25.5477 157.959 25.695C157.667 25.8424 157.303 25.9161 156.939 25.9161H143.539C143.539 28.2003 144.122 30.0424 145.36 31.3687C146.598 32.695 148.273 33.3582 150.385 33.3582C152.278 33.3582 154.172 32.695 155.847 31.3687C156.138 31.2213 156.429 31.074 156.648 31.074C157.012 31.074 157.303 31.2213 157.594 31.4424C157.886 31.7371 157.959 32.0319 157.959 32.4003C157.959 32.7687 157.813 33.1371 157.449 33.4319C155.774 35.1266 153.371 36.0108 150.312 36.0108C147.18 36.0108 144.704 35.1266 143.029 33.2845C141.427 31.5898 140.553 28.7898 140.553 25.1056Z" fill="white"/>
</svg>
