<svg width="232" height="48" viewBox="0 0 232 48" fill="none" xmlns="http://www.w3.org/2000/svg">
<path d="M1.82303 35.7498L11.0675 30.3963L20.351 35.7414L20.3646 46.4221L1.82303 35.7498ZM12.26 29.7058L20.9287 24.6963L29.6077 29.7058L20.9512 34.7073L12.26 29.7058ZM21.5453 35.743L40.6726 24.6937V35.3812L21.56 46.4227L21.5453 35.743ZM11.6633 18.659L20.3302 13.6381V23.6624L11.6633 28.6719V18.659ZM21.5262 23.6615V13.6365L30.207 18.6494V28.6744L21.5262 23.6615ZM1.19688 13.328L10.4691 18.6619V29.3631L1.22459 34.7159L1.19688 13.328ZM1.79268 12.2934L20.3302 1.57673V12.2574L11.0649 17.6251L1.79268 12.2934ZM21.5262 12.2569V1.57673L40.049 12.2713L30.8045 17.6156L21.5262 12.2569ZM20.6737 0L0.29922 11.7779L0.254093 11.8021L0 12.2419L0.0312365 35.7533V35.8034L0.287091 36.2438L20.6687 47.974L20.713 48L21.2195 47.9991L41.5687 36.2431L41.613 36.2179L41.8671 35.7783V23.547L41.0676 23.0863L31.4021 28.6692V18.6478L41.6387 12.7325V11.8091L21.227 0.0260191L21.1827 0H20.6737Z" fill="white"/>
<path d="M229.258 15.0016C229.258 15.2793 229.065 15.4737 228.702 15.4737H227.986V14.5207H228.685C229.039 14.5207 229.258 14.6816 229.258 15.0016ZM229.983 14.9584C229.983 14.2843 229.486 13.888 228.71 13.888H227.269V17.1339H227.986V16.089H228.55L229.242 17.1339H230.076L229.284 15.9707C229.495 15.9026 229.679 15.7666 229.805 15.5837C229.932 15.4008 229.994 15.1805 229.983 14.9584ZM231.222 15.5915C231.221 16.125 231.061 16.646 230.763 17.0887C230.465 17.5313 230.043 17.8757 229.549 18.0783C229.055 18.2808 228.513 18.3325 227.99 18.2267C227.467 18.1209 226.987 17.8624 226.611 17.4839C226.235 17.1054 225.98 16.6239 225.877 16.1003C225.775 15.5767 225.83 15.0345 226.036 14.5422C226.242 14.05 226.589 13.6298 227.034 13.3348C227.478 13.0399 228 12.8834 228.534 12.8851C228.888 12.8847 229.24 12.9546 229.567 13.0907C229.895 13.2267 230.192 13.4264 230.442 13.678C230.692 13.9296 230.89 14.2282 231.024 14.5567C231.158 14.8851 231.225 15.2368 231.222 15.5915ZM231.577 15.5915C231.575 14.9886 231.395 14.3998 231.059 13.8993C230.723 13.3987 230.246 13.0089 229.689 12.779C229.132 12.5491 228.519 12.4894 227.928 12.6074C227.337 12.7254 226.794 13.0159 226.367 13.4421C225.941 13.8684 225.651 14.4114 225.533 15.0025C225.415 15.5937 225.474 16.2066 225.704 16.7638C225.934 17.3211 226.324 17.7978 226.825 18.1337C227.325 18.4697 227.914 18.6499 228.517 18.6516C228.92 18.6555 229.319 18.579 229.692 18.4266C230.065 18.2742 230.404 18.0489 230.689 17.764C230.974 17.479 231.199 17.1401 231.352 16.7671C231.504 16.3941 231.581 15.9944 231.577 15.5915Z" fill="white"/>
<path d="M195.207 19.5181C195.207 21.2247 193.964 22.3814 191.795 22.3814H187.283V16.5685H191.708C193.877 16.5685 195.207 17.5519 195.207 19.4606L195.207 19.5181ZM200.326 32.7922L195.381 25.5625C196.692 25.1366 197.827 24.2916 198.611 23.1577C199.394 22.0237 199.784 20.6636 199.719 19.2866V19.2291C199.719 15.0643 196.856 12.5486 192.084 12.5486H182.829V32.7922H187.283V26.3144H190.782L195.121 32.7922H200.326ZM171.496 24.3188H166.117L168.807 17.7539L171.496 24.3188ZM179.593 32.7922L170.918 12.404H166.811L158.135 32.7922H162.675L164.526 28.2518H173.087L174.938 32.7922H179.593ZM140.587 22.8731V14.6598H146.833C150.101 14.6598 152.01 16.1637 152.01 18.6504V18.7086C152.01 21.311 149.841 22.8734 146.805 22.8734L140.587 22.8731ZM138.302 32.7922H140.587V24.9262H146.371L152.242 32.7922H155.047L148.829 24.5215C152.01 23.9428 154.324 21.9766 154.324 18.6216V18.5641C154.339 17.8288 154.208 17.0978 153.94 16.4129C153.672 15.728 153.272 15.1028 152.762 14.5729C151.187 13.1626 149.118 12.4346 147.007 12.5486H138.302L138.302 32.7922ZM119.084 32.7922H133.863V30.7104H121.37V23.6251H132.417V21.5425H121.37V14.6304H133.718V12.5486H119.085L119.084 32.7922ZM100.065 30.7391V23.5959H106.456C109.984 23.5959 111.835 24.8683 111.835 27.0667V27.1242C111.835 29.38 109.926 30.7394 106.86 30.7394L100.065 30.7391ZM100.065 21.5713V14.6017H106.224C109.116 14.6017 110.707 15.9029 110.707 17.8985V17.9567C110.707 20.328 108.798 21.5713 106.051 21.5713H100.065ZM97.8089 32.7922H106.803C111.228 32.7922 114.148 30.7391 114.148 27.2692V27.211C114.148 24.4345 112.211 23.0462 109.811 22.3233C110.768 21.9742 111.591 21.335 112.166 20.4951C112.742 19.6551 113.041 18.6564 113.021 17.6384V17.5808C113.031 16.9814 112.921 16.386 112.698 15.8297C112.474 15.2734 112.142 14.7675 111.72 14.3416C110.256 13.0786 108.357 12.4355 106.427 12.5487H97.8091L97.8089 32.7922ZM83.2479 32.7922H85.5614V24.7529L93.9774 12.5486H91.3168L84.4336 22.6704L77.6085 12.5486H74.832L83.2481 24.7815L83.2479 32.7922ZM64.6383 33.1394C66.1651 33.1685 67.68 32.8654 69.0781 32.2513C70.4762 31.6371 71.7242 30.7265 72.7357 29.5825L71.2319 28.1073C69.2944 29.9585 67.4723 31.0282 64.6958 31.0282C60.2423 31.0282 56.8586 27.3554 56.8586 22.6705V22.6128C56.8586 17.9567 60.2136 14.3127 64.6958 14.3127C65.8892 14.3198 67.0687 14.5696 68.1626 15.047C69.2564 15.5243 70.2417 16.2191 71.0586 17.0892L72.62 15.4121C71.6004 14.3564 70.3714 13.5255 69.0119 12.9726C67.6524 12.4197 66.1923 12.157 64.7253 12.2013C58.7671 12.2013 54.4878 16.9445 54.4878 22.6704V22.7286C54.4878 28.5415 58.7966 33.1394 64.6383 33.1394Z" fill="white"/>
<path d="M222.598 32.7917L213.98 21.137L222.222 12.5479H216.843L208.629 21.3974V12.5479H204.176V32.7917H208.629V26.603L210.971 24.174L217.248 32.7917H222.598Z" fill="white"/>
</svg>
