<svg width="222" height="48" viewBox="0 0 222 48" fill="none" xmlns="http://www.w3.org/2000/svg">
<path d="M72.5458 11.2734H69.1162V34.0917H81.6121V31.1855H72.5458V11.2734Z" fill="white"/>
<path d="M90.7736 16.5427C86.6612 16.5427 84.2954 18.3311 84.2954 21.4449V29.5087C84.2954 32.6225 86.6612 34.4109 90.7736 34.4109C94.886 34.4109 97.2518 32.6225 97.2518 29.5087V21.4449C97.2518 18.3311 94.886 16.5427 90.7736 16.5427ZM87.5345 22.0996C87.5345 20.3431 88.5666 19.5287 90.7736 19.5287C92.9647 19.5287 93.9809 20.3431 93.9809 22.0996V28.854C93.9809 30.6105 92.9647 31.4249 90.7736 31.4249C88.5666 31.4249 87.5345 30.6105 87.5345 28.854V22.0996Z" fill="white"/>
<path d="M110.161 17.5168C108.811 16.8621 107.398 16.5427 105.763 16.5427C102.524 16.5427 100.586 18.2992 100.586 21.2533V29.0936C100.586 32.1115 102.619 33.9957 105.89 33.9957C107.144 33.9957 108.462 33.6923 109.716 33.1175V33.7562C109.716 36.0396 108.24 37.1414 105.207 37.1414C103.762 37.1414 101.888 36.8859 101.126 36.7103L100.825 36.6464V39.5366L101.015 39.5845C102.142 39.8241 103.937 39.9997 105.35 39.9997C110.621 39.9997 112.955 38.0995 112.955 33.868V16.7343H110.335L110.161 17.5168ZM103.841 21.8441C103.841 19.9279 105.255 19.5128 106.429 19.5128C107.636 19.5128 108.509 19.7363 109.7 20.3431V30.2433C108.557 30.7702 107.541 31.0257 106.525 31.0257C104.302 31.0257 103.841 29.5566 103.841 28.3271V21.8441Z" fill="white"/>
<path d="M130.246 19.6247V17.5968C130.246 13.3333 127.674 11.2734 122.387 11.2734H116.687V34.0917H120.132V25.5009H122.768L128.198 34.0917H132.12L126.261 25.0378C128.913 24.2554 130.246 22.4351 130.246 19.6247ZM120.132 22.5947V14.1956H122.577C125.515 14.1956 126.833 15.2974 126.833 17.7564V19.2734C126.833 21.6047 125.531 22.5947 122.45 22.5947H120.132Z" fill="white"/>
<path d="M142.424 16.5429C140.98 16.5429 139.471 16.9261 137.836 17.6926V11.2734H134.597V34.0917H137.836V20.6466C138.836 20.1676 140.265 19.5608 141.504 19.5608C142.933 19.5608 143.631 20.2954 143.631 21.7963V34.1077H146.886V21.0458C146.886 18.1397 145.298 16.5429 142.424 16.5429Z" fill="white"/>
<path d="M156.588 29.7164L152.587 16.8622H149.109L154.921 33.7882L154.889 33.884C153.936 36.6146 152.825 37.1575 151.332 37.1575C150.713 37.1575 150.316 37.1096 150.014 37.0138L149.697 36.902V39.7283L149.872 39.7762C150.284 39.888 150.808 39.9359 151.697 39.9359C154.333 39.9359 156.429 38.9938 158.001 34.379L163.844 16.8462H160.335L156.588 29.7164Z" fill="white"/>
<path d="M172.132 31.4571C170.481 31.4571 169.814 30.7864 169.814 29.1258V19.5769H173.767V16.8623H169.814V12.519H167.162L166.543 16.8623V19.5929V29.6048C166.543 32.7505 168.163 34.2834 171.481 34.2834C172.545 34.2834 173.736 34.1237 174.26 33.9641L174.434 33.9162V31.0898L174.101 31.2016C173.815 31.3134 172.846 31.4571 172.132 31.4571Z" fill="white"/>
<path d="M185.629 16.5429C184.184 16.5429 182.675 16.9261 181.04 17.6926V11.2734H177.801V34.0917H181.04V20.6466C182.04 20.1676 183.469 19.5608 184.708 19.5608C186.137 19.5608 186.835 20.2954 186.835 21.7963V34.1077H190.106V21.0458C190.09 18.1397 188.502 16.5429 185.629 16.5429Z" fill="white"/>
<path d="M209.969 16.5427C208.159 16.5427 206.381 17.1176 204.92 18.1715C204.158 17.0856 202.872 16.5427 201.125 16.5427C199.648 16.5427 197.981 17.0377 196.759 17.8042L196.521 16.7184H193.853V34.0756H197.092V20.4868C198.013 19.8481 199.251 19.4649 200.426 19.4649C201.903 19.4649 202.554 20.2154 202.554 21.9239V34.1075H205.793V21.2373C205.793 21.0297 205.777 20.8062 205.746 20.5826C206.905 19.8481 208.064 19.4649 209.191 19.4649C210.62 19.4649 211.287 20.2473 211.287 21.9239V34.1075H214.558V21.2373C214.526 18.2513 212.859 16.5427 209.969 16.5427Z" fill="white"/>
<path d="M59.2722 8L58.5895 9.85229C57.224 13.5569 54.9693 19.1936 51.9684 24.942C46.6017 35.1935 41.9812 37.3492 39.0596 37.3492C35.8682 37.3492 33.8517 33.964 32.6132 30.467C31.7558 28.0558 31.3747 25.469 30.6444 23.0259C29.4694 19.1616 27.8816 16.7505 26.3891 16.7505C23.0388 16.7505 20.9906 22.7864 20.4825 25.1017L20.2443 26.1875H0L0.365192 24.5109C0.460459 24.0798 2.69924 13.972 8.95514 13.972C11.9719 13.972 13.9567 16.958 15.2428 20.4231H12.2577C11.2416 18.0758 10.0666 16.7345 8.93926 16.7345C5.93834 16.7345 4.06474 21.6207 3.49314 23.4091H18.0532C18.8788 20.5189 21.3081 14.004 26.3732 14.004C29.1836 14.004 31.0889 16.6387 32.3433 19.6566C32.6132 20.5349 32.8673 21.4131 33.1213 22.2914C33.9787 25.3572 34.6138 28.5029 35.9317 31.4091C36.5033 32.6546 37.4401 34.6027 39.0438 34.6027C40.8221 34.6027 44.5534 33.1815 49.5232 23.6646C52.0795 18.7624 54.0643 13.972 55.3027 10.7625H40.8221C39.7265 13.6846 38.0435 17.8523 35.8682 22.2914C35.6777 21.5568 35.4871 20.8223 35.2807 20.1037C35.106 19.481 34.9155 18.8742 34.7409 18.2514C36.3922 14.6427 37.6941 11.3373 38.5833 8.91018L38.9167 8H59.2722ZM29.3265 28.3432C25.7063 33.6925 23.0071 34.6027 21.6257 34.6027C20.2285 34.6027 18.7836 32.5268 17.6562 29.1736H14.7506C15.9255 33.0857 18.0373 37.3651 21.6257 37.3651C23.7057 37.3651 26.6908 36.2474 30.1839 31.8083C29.8981 30.6586 29.6282 29.4929 29.3265 28.3432Z" fill="white"/>
<path d="M218.893 12.814C220.179 12.814 221.211 14.3708 221.211 16.311C221.211 18.2511 220.179 19.8079 218.893 19.8079C217.607 19.8079 216.575 18.2271 216.575 16.311C216.575 14.3948 217.607 12.814 218.893 12.814ZM218.893 13.6523C217.908 13.6523 217.146 14.802 217.146 16.311C217.146 17.8199 217.908 18.9696 218.893 18.9696C219.877 18.9696 220.624 17.8199 220.624 16.311C220.624 14.8259 219.861 13.6523 218.893 13.6523ZM218.607 18.1553H218.02V14.3229H218.941C219.655 14.3229 219.941 14.7301 219.941 15.4726C219.941 15.9756 219.798 16.3589 219.48 16.5026L220.004 18.1313H219.353L218.877 16.6463H218.591V18.1553H218.607ZM218.607 15.0655V15.9277H218.877C219.226 15.9277 219.369 15.784 219.369 15.4966C219.369 15.1852 219.21 15.0655 218.861 15.0655H218.607Z" fill="white"/>
</svg>
