<svg width="174" height="48" viewBox="0 0 174 48" fill="none" xmlns="http://www.w3.org/2000/svg">
<path fill-rule="evenodd" clip-rule="evenodd" d="M41.8696 0H50.4783C55.8 0 58.6174 2.95129 58.6174 7.30056C58.6174 10.4072 56.974 12.2711 54.2348 13.3585L59.4783 22.8337H54.7827L49.6174 13.3585H46.0174V22.8337H41.8696V0ZM49.8522 9.86352C52.9044 9.86352 54.3131 9.0092 54.3131 6.67923C54.3131 4.65993 52.9044 3.49495 49.774 3.49495H45.9392V9.94118L49.8522 9.86352Z" fill="white"/>
<path d="M76.8521 13.9798C76.8521 8.77626 80.0607 5.12598 85.0694 5.12598C89.2955 5.12598 92.1912 7.53361 92.5042 11.2616H88.5912C88.3564 9.55291 86.8694 8.31026 85.1477 8.38793C82.6434 8.38793 80.9999 10.4849 80.9999 13.9022C80.9999 17.3195 82.6434 19.4941 85.1477 19.4941C86.8694 19.5718 88.3564 18.3291 88.5912 16.6205H92.5042C92.1912 20.2708 89.452 22.8337 85.1477 22.8337C79.9042 22.8337 76.8521 19.1834 76.8521 13.9798Z" fill="white"/>
<path fill-rule="evenodd" clip-rule="evenodd" d="M93.5215 13.9798C93.5215 8.69859 96.7302 5.12598 101.817 5.12598C106.904 5.12598 110.113 8.69859 110.113 13.9798C110.113 19.2611 106.904 22.8337 101.817 22.8337C96.7302 22.8337 93.5215 19.2611 93.5215 13.9798ZM105.887 13.9798C105.887 10.8732 104.478 8.31026 101.739 8.31026C98.9997 8.31026 97.591 10.7956 97.591 13.9798C97.591 17.1641 98.9215 19.5718 101.739 19.5718C104.556 19.5718 105.887 17.1641 105.887 13.9798Z" fill="white"/>
<path d="M111.208 5.6696H115.121V8.54322H115.278C115.826 6.67925 117.547 5.35894 119.504 5.4366C119.973 5.4366 120.443 5.51427 120.991 5.51427V9.24221C120.365 9.08688 119.739 9.00922 119.112 9.00922C117.078 8.85389 115.356 10.4072 115.199 12.4265V12.7372V22.8337H111.13L111.208 5.6696Z" fill="white"/>
<path fill-rule="evenodd" clip-rule="evenodd" d="M121.382 14.2905C121.382 8.54321 124.513 5.51425 128.504 5.51425C130.617 5.43659 132.574 6.60157 133.434 8.54321H133.591V0H137.661V22.8337H133.669V20.1154H133.434C132.808 21.358 131.478 22.8337 128.504 22.8337C124.513 22.8337 121.382 19.96 121.382 14.2905ZM133.748 14.2905C133.748 10.9508 132.339 8.85387 129.678 8.85387C127.017 8.85387 125.608 11.1062 125.608 14.2905C125.608 17.4747 127.017 19.8824 129.678 19.8824C132.339 19.8824 133.748 17.6301 133.748 14.2905Z" fill="white"/>
<path fill-rule="evenodd" clip-rule="evenodd" d="M156.913 14.2905C156.913 8.54321 160.044 5.51425 164.035 5.51425C166.148 5.43659 168.104 6.60157 168.965 8.54321H169.122V0H173.191V22.8337H169.2V20.1154H168.965C168.339 21.358 167.009 22.8337 164.035 22.8337C159.965 22.8337 156.913 19.96 156.913 14.2905ZM169.2 14.2905C169.2 10.9508 167.791 8.85387 165.13 8.85387C162.47 8.85387 161.061 11.1062 161.061 14.2905C161.061 17.4747 162.47 19.8824 165.13 19.8824C167.791 19.8824 169.2 17.6301 169.2 14.2905Z" fill="white"/>
<path d="M41.5566 24.853H56.3479V28.348H45.7827V34.7165H55.3305V38.2115H45.7045V47.6867H41.5566V24.853Z" fill="white"/>
<path d="M68.2431 30.5222H72.3127V47.6086H68.3997V44.5797H68.2431C67.4605 46.5213 65.6605 47.6086 63.0779 47.6086C59.7127 47.6086 57.2866 45.5117 57.2866 41.3954V30.5222H61.3562V40.7741C61.3562 42.9487 62.6866 44.3467 64.6431 44.3467C66.6779 44.3467 68.3214 42.7157 68.3214 40.6964C68.3214 40.5928 68.3214 40.5152 68.3214 40.4634L68.2431 30.5222Z" fill="white"/>
<path d="M83.5045 33.707H80.0611V42.5609C80.0611 44.1919 80.8437 44.5802 81.9393 44.5802C82.3306 44.5802 82.7219 44.5025 83.1132 44.4249L83.8176 47.6091C83.035 47.8421 82.2524 47.9975 81.3915 47.9975C78.3393 48.0751 75.9915 46.5218 75.9915 43.2599V33.707H73.5654V30.6004H75.9915V26.4841H80.0611V30.6004H83.5045V33.707Z" fill="white"/>
<path d="M96.3393 30.5222H100.409V47.6086H96.4958V44.5797H96.2611C95.4785 46.5213 93.6785 47.6086 91.0959 47.6086C87.7306 47.6086 85.3828 45.5117 85.3828 41.3954V30.5222H89.4524V40.7741C89.4524 42.9487 90.7828 44.3467 92.7393 44.3467C94.7741 44.3467 96.4176 42.7157 96.4176 40.6964C96.4176 40.5928 96.4176 40.5152 96.4176 40.4634L96.3393 30.5222Z" fill="white"/>
<path d="M102.991 30.5224H106.904V33.396H107.061C107.609 31.532 109.33 30.2117 111.287 30.2894C111.757 30.2894 112.304 30.3671 112.774 30.3671V34.095C112.148 33.9397 111.522 33.862 110.896 33.862C108.861 33.7067 107.139 35.26 106.983 37.2793V37.5899V47.6865H102.913L102.991 30.5224Z" fill="white"/>
<path fill-rule="evenodd" clip-rule="evenodd" d="M129.052 28.3478C129.052 26.2509 130.774 24.5422 132.887 24.5422C135 24.5422 136.722 26.2509 136.722 28.3478C136.722 30.4448 135 32.1535 132.887 32.1535C130.696 32.1535 129.052 30.4448 129.052 28.3478ZM135.939 28.3478C135.939 26.6392 134.531 25.2412 132.809 25.2412C131.087 25.2412 129.678 26.6392 129.678 28.3478C129.678 30.0565 131.087 31.4545 132.809 31.4545C134.531 31.4545 135.939 30.0565 135.939 28.3478ZM131.557 26.5615H133.278C133.904 26.5615 134.374 27.0275 134.374 27.6489C134.374 28.0372 134.139 28.5032 133.748 28.6585L134.531 30.0565H133.826L133.2 28.8138H132.261V30.0565H131.635L131.557 26.5615ZM133.044 28.2702C133.357 28.2702 133.67 27.9595 133.67 27.6489C133.67 27.6489 133.67 27.6489 133.67 27.5712C133.67 27.2605 133.435 26.9499 133.122 26.9499H132.183V28.1925H133.044V28.2702Z" fill="white"/>
<path fill-rule="evenodd" clip-rule="evenodd" d="M112.852 39.2211C112.852 33.9398 116.061 30.3672 120.991 30.3672C125.217 30.3672 128.896 33.0078 128.896 38.9881V40.2307H116.843C116.843 43.182 118.643 44.58 121.226 44.58C122.948 44.58 124.356 44.1916 124.904 42.716H128.896C128.191 45.6673 125.53 47.7643 121.226 47.7643C116.061 47.6866 112.852 44.58 112.852 39.2211ZM124.982 37.5124C125.061 35.4154 123.496 33.6291 121.382 33.4738C121.304 33.4738 121.226 33.4738 121.069 33.4738C118.8 33.4738 116.922 35.2601 116.922 37.5124H124.982Z" fill="white"/>
<path fill-rule="evenodd" clip-rule="evenodd" d="M139.46 14.368C139.46 9.08677 142.669 5.51416 147.6 5.51416C151.826 5.51416 155.504 8.15479 155.504 14.135V15.3777H143.452C143.452 18.329 145.252 19.7269 147.834 19.7269C149.556 19.7269 150.965 19.3386 151.513 17.863H155.504C154.8 20.8143 152.139 22.9112 147.834 22.9112C142.669 22.8336 139.46 19.7269 139.46 14.368ZM151.591 12.6594C151.669 10.5624 150.104 8.77611 147.991 8.62078C147.913 8.62078 147.834 8.62078 147.678 8.62078C145.408 8.62078 143.53 10.4071 143.53 12.6594H151.591Z" fill="white"/>
<path fill-rule="evenodd" clip-rule="evenodd" d="M59.6348 14.368C59.6348 9.08677 62.8435 5.51416 67.7739 5.51416C72 5.51416 75.6782 8.15479 75.6782 14.135V15.3777H63.7043C63.7043 18.329 65.5043 19.7269 68.0869 19.7269C69.8087 19.7269 71.2174 19.3386 71.7652 17.863H75.7565C75.0521 20.8143 72.3913 22.9112 68.0869 22.9112C62.8435 22.8336 59.6348 19.7269 59.6348 14.368ZM71.8435 12.6594C71.9217 10.5624 70.3565 8.77611 68.2435 8.62078C68.1652 8.62078 68.0869 8.62078 67.9304 8.62078C65.6609 8.62078 63.7826 10.4071 63.7826 12.6594H71.8435Z" fill="white"/>
<path fill-rule="evenodd" clip-rule="evenodd" d="M20.5827 23.2221C20.5827 24.6201 19.4088 25.7851 18.0001 25.7851C16.5914 25.7851 15.4175 24.6201 15.4175 23.2221C15.4175 21.8242 16.5914 20.6592 18.0001 20.6592C19.4088 20.6592 20.5827 21.8242 20.5827 23.2221Z" fill="white"/>
<path fill-rule="evenodd" clip-rule="evenodd" d="M35.8434 23.2221C35.8434 24.6201 34.6695 25.7851 33.2608 25.7851C31.8521 25.7851 30.6782 24.6201 30.6782 23.2221C30.6782 21.8242 31.8521 20.6592 33.2608 20.6592C34.6695 20.6592 35.8434 21.8242 35.8434 23.2221Z" fill="white"/>
<path fill-rule="evenodd" clip-rule="evenodd" d="M5.16521 23.2221C5.16521 24.6201 3.9913 25.7851 2.58261 25.7851C1.17391 25.7851 0 24.6201 0 23.2221C0 21.8242 1.17391 20.6592 2.58261 20.6592C3.9913 20.6592 5.16521 21.8242 5.16521 23.2221Z" fill="white"/>
<path fill-rule="evenodd" clip-rule="evenodd" d="M15.8091 37.5902V30.0567C15.8091 28.8917 16.7482 27.9597 17.9221 27.9597C19.096 27.9597 20.0352 28.8917 20.0352 30.0567V37.5902C20.0352 38.7552 19.096 39.6872 17.9221 39.6872C16.7482 39.7649 15.8091 38.8329 15.8091 37.5902Z" fill="white"/>
<path fill-rule="evenodd" clip-rule="evenodd" d="M23.4782 33.7847V12.6597C23.3999 11.4947 24.3391 10.485 25.513 10.4074C26.6869 10.3297 27.7043 11.2617 27.7825 12.4267V12.6597V33.707V33.7847C27.7043 34.9497 26.6869 35.804 25.513 35.804C24.4173 35.7263 23.5565 34.872 23.4782 33.7847Z" fill="white"/>
<path fill-rule="evenodd" clip-rule="evenodd" d="M8.13867 33.785V12.66C8.13867 11.495 9.0778 10.563 10.2517 10.563C11.4256 10.563 12.3648 11.495 12.3648 12.66V33.7073V33.785C12.3648 34.95 11.4256 35.8819 10.2517 35.8819C9.0778 35.8819 8.13867 34.95 8.13867 33.785Z" fill="white"/>
<path fill-rule="evenodd" clip-rule="evenodd" d="M15.8091 15.9989V8.46538C15.8091 7.30039 16.7482 6.36841 17.9221 6.36841C19.096 6.36841 20.0352 7.30039 20.0352 8.46538V15.9989V16.0766C20.0352 17.2416 19.096 18.1736 17.9221 18.1736C16.7482 18.1736 15.8091 17.2416 15.8091 15.9989Z" fill="white"/>
</svg>
