<svg width="168" height="48" viewBox="0 0 168 48" fill="none" xmlns="http://www.w3.org/2000/svg">
<path d="M47.1999 24.2144C45.362 23.6938 44.4186 22.7937 44.4186 21.5444C44.4186 19.9969 45.8337 18.9043 47.7761 18.9043C49.7853 18.9043 51.0569 19.9723 51.1314 21.6856H56.0331C55.953 17.3524 52.6756 14.4443 47.8351 14.4443C42.9946 14.4443 39.4791 17.4826 39.4791 21.6756C39.4791 24.9986 41.5929 27.3293 45.748 28.6231L48.7519 29.4598C50.9769 30.0973 51.8981 30.9662 51.8458 32.428C51.8124 34.1112 50.3393 35.2092 48.0632 35.2092C45.5867 35.2092 44.3496 33.7384 44.2128 32.231H39.2456C39.3357 36.5643 42.928 39.5413 48.0533 39.5413C52.1984 39.5413 56.7185 37.3162 56.7908 32.4546C56.8921 28.9157 54.6526 26.4471 50.1158 25.1466L47.1999 24.2144Z" fill="white"/>
<path d="M66.4457 22.3608C64.2175 22.4231 62.1015 23.352 60.5475 24.95C58.9934 26.5481 58.124 28.6892 58.124 30.9182C58.124 33.1473 58.9934 35.2884 60.5475 36.8864C62.1015 38.4844 64.2175 39.4133 66.4457 39.4755C67.8197 39.4755 70.2149 38.808 71.1872 37.3251L71.4964 36.8545V39.1407H76.1199V22.7168H71.5108V24.9418L71.2017 24.5046C69.7387 22.422 66.7761 22.3608 66.4457 22.3608ZM66.9396 35.0722C66.3781 35.0998 65.8167 35.0131 65.2897 34.8173C64.7627 34.6213 64.281 34.3204 63.8737 33.9327C63.4666 33.5451 63.1424 33.0786 62.9209 32.5619C62.6993 32.0451 62.585 31.4888 62.585 30.9265C62.585 30.3643 62.6993 29.8079 62.9209 29.2911C63.1424 28.7744 63.4666 28.308 63.8737 27.9203C64.281 27.5326 64.7627 27.2318 65.2897 27.0359C65.8167 26.84 66.3781 26.7532 66.9396 26.7808C67.4897 26.7718 68.0363 26.8724 68.5471 27.0767C69.058 27.281 69.5231 27.5849 69.9153 27.9707C70.3075 28.3567 70.619 28.8167 70.8318 29.3242C71.0444 29.8316 71.1538 30.3764 71.1538 30.9265C71.1538 31.4768 71.0444 32.0214 70.8318 32.529C70.619 33.0364 70.3075 33.4965 69.9153 33.8823C69.5231 34.2681 69.058 34.5721 68.5471 34.7764C68.0363 34.9807 67.4897 35.0813 66.9396 35.0722Z" fill="white"/>
<path d="M83.4851 22.72H78.8638V39.1571H83.4851V22.72Z" fill="white"/>
<path d="M90.9159 14.7683H86.2734V39.1465H90.9159V14.7683Z" fill="white"/>
<path d="M103.543 14.7439H93.5513V39.1521H98.5052V30.6103H103.553C109.434 30.6103 111.535 26.3484 111.535 22.6916C111.524 17.2036 107.517 14.7439 103.543 14.7439ZM103.289 26.3428H98.4952V19.0359H103.449C105.617 19.0359 106.597 21.1686 106.597 22.6816C106.622 23.1385 106.558 23.5962 106.407 24.0281C106.255 24.46 106.019 24.8577 105.713 25.1982C105.407 25.5385 105.037 25.8149 104.623 26.0114C104.21 26.2079 103.762 26.3204 103.305 26.3428H103.289Z" fill="white"/>
<path d="M119.715 22.361C118.025 22.3608 116.373 22.862 114.968 23.8012C113.563 24.7403 112.467 26.0751 111.822 27.6368C111.176 29.1986 111.007 30.9168 111.337 32.5742C111.669 34.2317 112.483 35.7539 113.68 36.9479C114.876 38.1419 116.399 38.9544 118.057 39.2823C119.715 39.6102 121.433 39.4389 122.994 38.79C124.555 38.1412 125.887 37.0439 126.824 35.6372C127.761 34.2304 128.259 32.5773 128.256 30.8872C128.296 29.7556 128.102 28.628 127.686 27.5745C127.271 26.5212 126.644 25.5647 125.842 24.7647C125.041 23.9647 124.083 23.3385 123.029 22.9249C121.975 22.5113 120.847 22.3194 119.715 22.361ZM119.715 34.8944C118.927 34.8992 118.153 34.6701 117.495 34.2357C116.835 33.8014 116.32 33.1815 116.013 32.4545C115.707 31.7274 115.622 30.9256 115.77 30.1506C115.919 29.3756 116.294 28.662 116.848 28.1001C117.404 27.5382 118.111 27.1531 118.884 26.9936C119.657 26.8341 120.46 26.9073 121.192 27.2039C121.923 27.5006 122.55 28.0072 122.993 28.66C123.437 29.3129 123.677 30.0826 123.682 30.8717C123.705 31.3779 123.627 31.8837 123.453 32.36C123.28 32.8361 123.015 33.2735 122.672 33.6471C122.33 34.0207 121.917 34.3231 121.457 34.5371C120.998 34.7512 120.501 34.8726 119.995 34.8944H119.715Z" fill="white"/>
<path d="M134.637 22.72H130.014V39.1571H134.637V22.72Z" fill="white"/>
<path d="M142.258 25.0705L141.949 25.659V22.7154H137.276V39.1458H141.919V30.4428C141.919 28.1065 143.051 26.865 145.172 26.865C147.082 26.865 148.244 28.2078 148.244 30.3616V39.1381H152.9V29.2891C152.921 24.8169 150.802 22.3416 146.952 22.3416C145.998 22.3402 145.061 22.5911 144.235 23.0688C143.41 23.5465 142.725 24.234 142.251 25.0616L142.258 25.0705Z" fill="white"/>
<path d="M81.1759 20.3682C81.7464 20.3695 82.3045 20.2016 82.7796 19.8858C83.2547 19.5701 83.6254 19.1204 83.845 18.5939C84.0646 18.0673 84.1231 17.4875 84.0132 16.9277C83.9033 16.3679 83.6298 15.8533 83.2275 15.4488C82.8251 15.0444 82.3118 14.7684 81.7525 14.6557C81.1934 14.543 80.6132 14.5987 80.0855 14.8156C79.558 15.0325 79.1065 15.401 78.7884 15.8745C78.4701 16.3481 78.2994 16.9052 78.2979 17.4757V17.4857C78.2969 17.8642 78.3725 18.2389 78.5204 18.5872C78.7384 19.1135 79.1075 19.5635 79.5812 19.8804C80.0548 20.1972 80.6117 20.3665 81.1815 20.3671L81.1759 20.3682Z" fill="white"/>
<path d="M132.314 20.3682C132.885 20.3695 133.443 20.2016 133.918 19.8858C134.393 19.5701 134.764 19.1204 134.983 18.5939C135.203 18.0673 135.261 17.4875 135.151 16.9277C135.042 16.3679 134.768 15.8533 134.366 15.4488C133.963 15.0444 133.45 14.7684 132.89 14.6557C132.332 14.543 131.751 14.5987 131.224 14.8156C130.697 15.0325 130.245 15.401 129.927 15.8745C129.609 16.3481 129.438 16.9052 129.436 17.4757V17.4857C129.434 17.8637 129.507 18.2384 129.653 18.5872C129.871 19.1138 130.24 19.5642 130.713 19.8812C131.187 20.1982 131.745 20.3677 132.314 20.3682Z" fill="white"/>
<path d="M164.962 22.7038H161.727V16.2947H157.082V22.7038H153.987V26.6153H157.082V39.1465H161.725V26.6164H164.96L164.962 22.7038Z" fill="white"/>
<path fill-rule="evenodd" clip-rule="evenodd" d="M2.10633 32.802H24.1034L25.4782 41.0003L2.10633 32.802ZM25.2906 32.802L26.6082 40.6597L34.5596 32.802H25.2906ZM21.2372 8.59416L25.1036 31.669H34.9424L21.2372 8.59416ZM0 31.669L19.7882 7.00024L23.9217 31.669H0Z" fill="white"/>
<path d="M166.195 36.0107C166.463 36.1665 166.684 36.3933 166.832 36.6659C166.989 36.9533 167.069 37.2764 167.064 37.6038C167.069 37.9294 166.989 38.2507 166.832 38.5361C166.683 38.8067 166.463 39.0317 166.195 39.1869C165.914 39.3476 165.595 39.4295 165.271 39.4237C164.946 39.4291 164.626 39.3472 164.343 39.1869C164.074 39.0327 163.852 38.8076 163.701 38.5361C163.545 38.2507 163.464 37.9293 163.47 37.6038C163.466 37.2764 163.545 36.9533 163.701 36.6659C163.85 36.3924 164.073 36.1655 164.343 36.0107C164.626 35.8503 164.946 35.7685 165.271 35.7737C165.595 35.7679 165.914 35.8498 166.195 36.0107ZM166.331 38.695C166.594 38.3918 166.739 38.0042 166.739 37.6032C166.739 37.2022 166.594 36.8146 166.331 36.5113C166.045 36.2367 165.664 36.0834 165.267 36.0834C164.87 36.0834 164.489 36.2367 164.202 36.5113C163.942 36.8152 163.798 37.2026 163.798 37.6032C163.798 38.0038 163.942 38.3911 164.202 38.695C164.488 38.9687 164.87 39.1213 165.264 39.1213C165.661 39.1213 166.042 38.9687 166.328 38.695H166.331ZM165.936 37.5825C165.844 37.6867 165.718 37.7557 165.582 37.7784L166.128 38.5572L165.664 38.566L165.159 37.7873H164.95V38.566H164.558V36.6046H165.405C165.578 36.5955 165.748 36.6524 165.882 36.7638C165.941 36.8187 165.988 36.8858 166.019 36.9605C166.05 37.0353 166.063 37.1158 166.06 37.1966C166.067 37.333 166.023 37.4671 165.938 37.5737L165.936 37.5825ZM164.954 37.4714H165.381C165.456 37.4743 165.53 37.4519 165.59 37.408C165.619 37.3852 165.642 37.3558 165.655 37.3225C165.669 37.2892 165.676 37.2528 165.673 37.2166C165.676 37.181 165.669 37.1454 165.655 37.1127C165.64 37.0801 165.618 37.0517 165.59 37.0297C165.529 36.9884 165.456 36.9677 165.381 36.9708H164.954V37.4714Z" fill="white"/>
</svg>
