<svg width="710" height="120" viewBox="0 0 710 120" fill="none" xmlns="http://www.w3.org/2000/svg">
<g clip-path="url(#clip0_150_26)">
<path d="M56.3206 0H40.1504V96.6834H56.3206V0Z" fill="white"/>
<path fill-rule="evenodd" clip-rule="evenodd" d="M60.2378 120L76.3955 109.988V26.283C71.6054 22.7309 66.0869 20.2859 60.2378 19.124V120Z" fill="white"/>
<path fill-rule="evenodd" clip-rule="evenodd" d="M20.0249 110.038L36.1951 120.05V19.1741C30.3455 20.3184 24.8227 22.7463 20.0249 26.283V110.038Z" fill="white"/>
<path fill-rule="evenodd" clip-rule="evenodd" d="M80.313 4.59326V108.235L87.8224 103.58C90.5113 101.811 92.7109 99.3927 94.2181 96.5489C95.7253 93.7051 96.4914 90.5273 96.4457 87.3092V38.3605C96.4832 24.2428 80.313 4.59326 80.313 4.59326Z" fill="white"/>
<path fill-rule="evenodd" clip-rule="evenodd" d="M-0.000202643 87.2716C-0.0494699 90.4904 0.715129 93.6695 2.22264 96.5138C3.73016 99.3582 5.93173 101.776 8.62308 103.542L16.1325 108.198V4.59326C16.1325 4.59326 -0.000202643 24.2428 -0.000202643 38.3605V87.2716Z" fill="white"/>
<path fill-rule="evenodd" clip-rule="evenodd" d="M483.955 97.8223V21.577L495.619 16.6709V97.8223H483.955ZM465.582 65.8824C465.642 63.8253 465.261 61.7792 464.464 59.8817C463.667 57.9841 462.474 56.2791 460.964 54.8812C457.969 52.1526 454.038 50.6824 449.987 50.776C445.979 50.6647 442.088 52.1399 439.161 54.8812C436.167 57.7871 434.379 61.7158 434.155 65.8824H465.582ZM449.762 98.736C441.56 98.736 434.885 96.0994 429.737 90.8261C424.589 85.5528 422.032 78.5566 422.065 69.8374C422.065 61.1265 424.664 54.1469 429.862 48.8987C435.06 43.6505 441.781 41.0347 450.025 41.0514C458.277 41.0514 464.952 43.5545 470.05 48.5608C475.148 53.567 477.714 60.1419 477.747 68.2854C477.756 70.1167 477.618 71.9457 477.334 73.7548H434.03C434.096 77.9386 435.81 81.9276 438.798 84.8561C441.757 87.6116 445.684 89.087 449.724 88.9613C456.091 88.9613 460.571 86.358 463.166 81.1515H475.795C474.144 86.2805 470.883 90.74 466.495 93.8674C461.586 97.2477 455.718 98.955 449.762 98.736ZM376.383 41.965V50.726C380.137 44.2429 386.157 41.0013 394.443 41.0013C397.357 40.9052 400.259 41.4113 402.968 42.4881C405.677 43.5648 408.135 45.1891 410.188 47.2591C414.359 51.431 416.445 57.2716 416.445 64.781V97.8223H404.856V66.5958C404.856 61.5895 403.604 57.7556 401.101 55.0939C399.755 53.7322 398.135 52.6712 396.349 51.9809C394.563 51.2906 392.65 50.9866 390.738 51.0889C388.804 50.9754 386.869 51.2712 385.057 51.957C383.245 52.6428 381.599 53.7032 380.225 55.0689C377.664 57.7306 376.383 61.5645 376.383 66.5708V97.8223H364.681V41.965H376.383ZM342.928 97.8223V41.965H354.631V97.8223H342.928ZM334.455 51.3893H320.688V82.3029C320.61 83.1181 320.702 83.9408 320.958 84.7186C321.214 85.4964 321.63 86.2124 322.178 86.8211C323.166 87.7347 324.856 88.1853 327.259 88.1853H334.443V97.8223H325.206C314.359 97.8223 308.936 92.6492 308.936 82.3029V32.9663L320.738 28.0727V41.965H334.505L334.455 51.3893ZM263.504 41.965V50.726C267.225 44.2762 273.258 41.0514 281.602 41.0514C284.517 40.9588 287.42 41.4665 290.131 42.543C292.841 43.6195 295.302 45.2418 297.359 47.3092C301.531 51.4811 303.617 57.3217 303.617 64.8311V97.8223H292.015V66.5958C292.015 61.5895 290.763 57.7556 288.26 55.0939C286.914 53.7322 285.294 52.6712 283.508 51.9809C281.722 51.2906 279.809 50.9866 277.897 51.0889C275.955 50.9682 274.01 51.2605 272.189 51.9465C270.368 52.6325 268.713 53.6967 267.334 55.0689C264.772 57.7306 263.487 61.5645 263.479 66.5708V97.8223H251.79V41.965H263.504ZM233.467 65.8824C233.527 63.8253 233.145 61.7792 232.349 59.8817C231.552 57.9841 230.359 56.2791 228.848 54.8812C225.828 52.1283 221.857 50.6564 217.772 50.776C213.763 50.6647 209.873 52.1399 206.946 54.8812C203.946 57.7835 202.158 61.7143 201.94 65.8824H233.467ZM217.597 98.736C209.387 98.736 202.712 96.0994 197.572 90.8261C192.432 85.5528 189.87 78.5566 189.887 69.8374C189.887 61.1265 192.486 54.1469 197.684 48.8987C202.883 43.6505 209.603 41.0347 217.847 41.0514C226.091 41.0514 232.766 43.5545 237.872 48.5608C242.979 53.567 245.544 60.1419 245.569 68.2854C245.579 70.1167 245.441 71.9457 245.156 73.7548H201.852C201.916 77.9416 203.635 81.9328 206.633 84.8561C209.589 87.6163 213.517 89.0925 217.559 88.9613C223.917 88.9613 228.398 86.358 231.001 81.1515H243.617C241.966 86.2805 238.705 90.74 234.318 93.8674C229.413 97.2459 223.549 98.9532 217.597 98.736ZM159.286 35.8824C156.231 35.7453 153.222 36.6744 150.776 38.5107C149.666 39.4406 148.79 40.6182 148.218 41.9486C147.646 43.279 147.395 44.725 147.484 46.1703C147.418 47.6793 147.749 49.1793 148.442 50.5209C149.136 51.8625 150.169 52.9991 151.439 53.8173C154.311 55.6902 157.514 56.9984 160.876 57.6722C164.564 58.5065 168.256 59.4369 171.952 60.4631C175.577 61.4929 178.836 63.528 181.351 66.333C183.938 69.1615 185.235 73.1832 185.244 78.3981C185.252 83.6129 183.029 88.2729 178.573 92.378C174.126 96.5082 168.177 98.5941 160.726 98.6359C153.275 98.6776 147.221 96.9504 142.565 93.4544C140.31 91.8355 138.492 89.6823 137.273 87.1879C136.054 84.6935 135.473 81.9357 135.582 79.1615H148.097C148.239 81.9949 149.494 84.6577 151.589 86.5708C153.642 88.3897 156.654 89.2992 160.626 89.2992C164.024 89.4909 167.372 88.4062 170.012 86.2579C171.937 84.5775 173.147 82.2248 173.393 79.6817C173.64 77.1385 172.905 74.5972 171.339 72.5783C169.856 70.9665 167.987 69.7602 165.907 69.0739C163.502 68.2488 161.054 67.5553 158.573 66.9963C155.903 66.3956 153.216 65.6863 150.513 64.8687C147.938 64.1123 145.46 63.058 143.129 61.7272C140.837 60.3786 138.955 58.4317 137.684 56.0952C136.205 53.3099 135.48 50.186 135.582 47.0339C135.487 44.2079 136.044 41.398 137.209 38.8218C138.375 36.2456 140.117 33.9722 142.303 32.1778C146.783 28.4231 152.599 26.5457 159.749 26.5457C166.9 26.5457 172.611 28.1269 176.883 31.2892C181.164 34.5349 183.542 39.2324 184.017 45.3818H171.089C170.85 42.7492 169.598 40.3123 167.597 38.5858C165.264 36.6746 162.297 35.7097 159.286 35.8824Z" fill="white"/>
<path fill-rule="evenodd" clip-rule="evenodd" d="M666.909 45.1438C663.075 45.0948 659.284 45.9525 655.845 47.647C652.453 49.3575 649.625 52.0077 647.697 55.2815C645.505 59.1375 644.389 63.5122 644.468 67.9473H688.361C688.756 63.5496 687.865 59.1318 685.795 55.2314C683.97 51.9308 681.179 49.2669 677.798 47.5969C674.407 45.9474 670.679 45.1076 666.909 45.1438ZM666.709 93.5919C671.751 93.7635 676.713 92.2968 680.851 89.4117C682.721 88.0782 684.302 86.3811 685.5 84.4219C686.698 82.4627 687.488 80.2818 687.823 78.0099H692.641C691.759 83.5969 688.767 88.6324 684.281 92.0775C679.742 95.6319 673.951 97.4092 666.909 97.4092C662.038 97.5021 657.224 96.3428 652.929 94.0425C648.852 91.8058 645.509 88.4371 643.304 84.3428C640.879 79.7165 639.681 74.5455 639.825 69.3241C639.702 64.1647 640.9 59.0595 643.304 54.493C645.503 50.4065 648.831 47.0392 652.891 44.7934C657.186 42.493 662 41.3338 666.871 41.4267C671.746 41.3021 676.568 42.4633 680.851 44.7934C684.59 46.8529 687.677 49.9182 689.763 53.642C691.761 57.2177 692.804 61.248 692.791 65.3441C692.779 67.133 692.607 68.9173 692.278 70.6757H644.468C644.386 75.1589 645.5 79.583 647.697 83.4918C649.598 86.7692 652.411 89.4221 655.795 91.1263C659.191 92.787 662.928 93.6313 666.709 93.5919ZM609.7 41.0262C616.258 41.0262 621.59 43.037 625.695 47.0587C629.8 51.0804 631.848 57.0087 631.84 64.8435V96.7083H627.234V65.0813C627.234 58.5231 625.557 53.5043 622.228 50.0625C618.899 46.6207 614.306 44.881 608.461 44.881C605.772 44.7669 603.089 45.2231 600.589 46.2196C598.089 47.2162 595.828 48.7306 593.955 50.6632C590.301 54.518 588.473 60.196 588.473 67.697V96.7083H583.868V42.1276H588.473V56.508C589.569 51.8156 592.365 47.6956 596.321 44.9436C600.274 42.2988 604.944 40.9314 609.7 41.0262ZM540.301 30.5881C534.936 30.5116 529.647 31.8683 524.982 34.518C520.413 37.145 516.682 41.0111 514.218 45.6695C511.494 50.881 510.137 56.699 510.276 62.5781C510.141 68.4488 511.498 74.2576 514.218 79.4617C516.685 84.1177 520.416 87.9829 524.982 90.6132C529.669 93.1832 534.929 94.5305 540.276 94.5305C545.622 94.5305 550.882 93.1832 555.57 90.6132C560.158 87.9958 563.908 84.1285 566.383 79.4617C569.104 74.2576 570.46 68.4488 570.326 62.5781C570.46 56.7075 569.104 50.8986 566.383 45.6945C563.912 41.0249 560.161 37.1566 555.57 34.5431C550.92 31.8966 545.651 30.5318 540.301 30.5881ZM540.301 26.4705C546.568 26.3746 552.747 27.9561 558.198 31.0512C563.448 34.0493 567.743 38.4704 570.589 43.8047C573.631 49.5874 575.163 56.0449 575.044 62.5781C575.151 69.086 573.619 75.5161 570.589 81.2765C567.734 86.6232 563.442 91.0662 558.198 94.105C552.726 97.1416 546.571 98.735 540.313 98.735C534.055 98.735 527.9 97.1416 522.428 94.105C517.143 91.0667 512.809 86.6157 509.913 81.2515C506.868 75.5057 505.335 69.0797 505.457 62.5781C505.333 56.0384 506.884 49.5756 509.963 43.8047C512.847 38.4444 517.185 34.0066 522.478 31.0012C527.912 27.9353 534.063 26.3715 540.301 26.4705Z" fill="white"/>
<path d="M705.219 49.4995L703.967 47.6096H702.941V49.4995H701.689V43.5796H704.393C705.795 43.5796 706.633 44.318 706.633 45.532C706.651 45.9312 706.539 46.3254 706.313 46.6551C706.087 46.9848 705.76 47.232 705.382 47.3593L706.833 49.4745L705.219 49.4995ZM705.219 45.6071C705.219 45.0439 704.831 44.7561 704.193 44.7561H702.941V46.4582H704.255C704.893 46.4582 705.256 46.1203 705.256 45.6196L705.219 45.6071Z" fill="white"/>
<path d="M703.88 52.7659C702.678 52.7684 701.503 52.4142 700.503 51.7481C699.503 51.0821 698.723 50.1342 698.262 49.0245C697.801 47.9148 697.68 46.6933 697.913 45.5147C698.147 44.336 698.726 43.2533 699.575 42.4036C700.425 41.554 701.508 40.9756 702.686 40.7418C703.865 40.5079 705.086 40.6292 706.196 41.0902C707.306 41.5512 708.254 42.3311 708.92 43.3313C709.586 44.3314 709.94 45.5067 709.938 46.7083C709.934 48.3139 709.295 49.8527 708.16 50.988C707.024 52.1233 705.486 52.7626 703.88 52.7659ZM703.88 41.9649C702.942 41.9649 702.025 42.2431 701.245 42.7643C700.465 43.2855 699.857 44.0263 699.498 44.8931C699.139 45.7598 699.045 46.7136 699.228 47.6337C699.411 48.5539 699.863 49.3991 700.526 50.0624C701.189 50.7258 702.034 51.1776 702.955 51.3606C703.875 51.5436 704.828 51.4497 705.695 51.0907C706.562 50.7317 707.303 50.1237 707.824 49.3436C708.345 48.5636 708.623 47.6465 708.623 46.7083C708.623 45.4503 708.124 44.2438 707.234 43.3542C706.345 42.4646 705.138 41.9649 703.88 41.9649Z" fill="white"/>
</g>
<defs>
<clipPath id="clip0_150_26">
<rect width="709.937" height="120" fill="white"/>
</clipPath>
</defs>
</svg>
