<svg width="481" height="116" viewBox="0 0 481 116" fill="none" xmlns="http://www.w3.org/2000/svg">
<path fill-rule="evenodd" clip-rule="evenodd" d="M71.5284 4.49454C71.5291 4.49479 71.5299 4.49504 71.5306 4.4953L74.6266 5.55433C82.2086 8.14889 88.1711 10.1893 92.4656 11.9343C94.6328 12.815 96.5897 13.7048 98.2176 14.6504C99.7506 15.5409 101.563 16.7995 102.86 18.6426C102.861 18.6441 102.862 18.6457 102.863 18.6473C104.143 20.4679 104.725 22.5788 105.06 24.3133C105.416 26.1578 105.619 28.2997 105.747 30.6461C105.999 35.2834 105.999 41.5951 105.999 49.6292V57.9537C105.999 91.0057 80.9597 106.733 66.5716 113.018C66.501 113.049 66.4305 113.08 66.3596 113.111C64.6626 113.853 62.8454 114.648 60.748 115.186C58.468 115.77 56.1095 116 53.1387 116V102.887C55.4151 102.887 56.6062 102.711 57.4912 102.484C58.4712 102.232 59.3708 101.855 61.3221 101.002C74.3019 95.3321 92.8866 82.9094 92.8866 57.9537V49.8565C92.8866 41.5472 92.8842 35.5956 92.6532 31.36C92.5381 29.2482 92.3759 27.7874 92.1851 26.7985C92.1411 26.5706 92.0999 26.3922 92.0651 26.2564C91.9558 26.1842 91.8133 26.0948 91.6313 25.9891C90.7791 25.4941 89.4716 24.8718 87.5291 24.0825C83.6327 22.4992 78.0457 20.5837 70.2309 17.9095C70.2306 17.9094 70.2303 17.9093 70.2301 17.9092L67.2796 16.9C58.8076 13.9967 55.972 13.1129 53.1387 13.1129V0C58.4304 0 63.446 1.72114 70.5896 4.17252C70.8981 4.27837 71.2105 4.38559 71.5271 4.49409C71.5275 4.49424 71.528 4.49439 71.5284 4.49454Z" fill="#DC2626"/>
<path fill-rule="evenodd" clip-rule="evenodd" d="M34.7509 4.49454C34.7501 4.49479 34.7494 4.49504 34.7487 4.4953L31.6527 5.55433C24.0707 8.14889 18.1082 10.1893 13.8137 11.9343C11.6465 12.815 9.68961 13.7048 8.06172 14.6504C6.52869 15.5409 4.71597 16.7995 3.41947 18.6426C3.41837 18.6441 3.41727 18.6457 3.41617 18.6473C2.13616 20.4679 1.55383 22.5788 1.21904 24.3133C0.863001 26.1578 0.660573 28.2997 0.532636 30.6461C0.279808 35.2834 0.279821 41.5951 0.279846 49.6292V57.9537C0.279846 91.0057 25.3196 106.733 39.7077 113.018C39.7783 113.049 39.8488 113.08 39.9197 113.111C41.6167 113.853 43.4339 114.648 45.5313 115.186C47.8113 115.77 50.1698 116 53.1406 116V102.887C50.8642 102.887 49.6731 102.711 48.7881 102.484C47.8081 102.232 46.9085 101.855 44.9572 101.002C31.9774 95.3321 13.3927 82.9094 13.3927 57.9537V49.8565C13.3927 41.5472 13.3951 35.5956 13.6261 31.36C13.7412 29.2482 13.9034 27.7874 14.0942 26.7985C14.1382 26.5706 14.1794 26.3922 14.2142 26.2564C14.3235 26.1842 14.466 26.0948 14.648 25.9891C15.5002 25.4941 16.8077 24.8718 18.7502 24.0825C22.6465 22.4992 28.2336 20.5837 36.0484 17.9095C36.0487 17.9094 36.049 17.9093 36.0492 17.9092L38.9997 16.9C47.4717 13.9967 50.3073 13.1129 53.1406 13.1129V0C47.8489 0 42.8333 1.72114 35.6897 4.17252C35.3812 4.27837 35.0688 4.38559 34.7522 4.49409C34.7518 4.49424 34.7513 4.49439 34.7509 4.49454Z" fill="white"/>
<path d="M138.822 88C137.102 88 135.27 87.8347 133.328 87.5042C131.442 87.1737 129.999 86.7605 129 86.2647V75.4398C129.832 75.8254 130.887 76.1284 132.163 76.3487C133.439 76.5691 134.715 76.6793 135.992 76.6793C138.489 76.6793 140.348 76.1008 141.569 74.944C142.789 73.7871 143.4 71.9692 143.4 69.4902V29H156.051V70.6471C156.051 75.9907 154.553 80.2325 151.557 83.3726C148.56 86.4575 144.315 88 138.822 88Z" fill="white"/>
<path d="M181.607 29H194.009L217.232 86.7605H204.331L199.336 74.2003H176.28L171.286 86.7605H158.301L181.607 29ZM196.007 64.2017L187.767 42.2213L179.526 64.2017H196.007Z" fill="white"/>
<path d="M232.688 64.7801L211.38 29H224.864L238.931 53.0462L253.497 29H266.898L245.09 64.7801V86.7605H232.688V64.7801Z" fill="white"/>
<path d="M284.432 29H296.834L320.057 86.7605H307.155L302.161 74.2003H279.105L274.111 86.7605H261.126L284.432 29ZM298.832 64.2017L290.592 42.2213L282.351 64.2017H298.832Z" fill="white"/>
<path d="M327.087 29H339.406L363.71 66.3501V29H376.362V86.7605H364.127L339.739 49.4104V86.7605H327.087V29Z" fill="white"/>
<path d="M398.943 39.4944H381.963V29H428.575V39.4944H411.595V86.7605H398.943V39.4944Z" fill="white"/>
<path d="M445.375 29H457.777L481 86.7605H468.099L463.104 74.2003H440.048L435.054 86.7605H422.069L445.375 29ZM459.775 64.2017L451.535 42.2213L443.294 64.2017H459.775Z" fill="white"/>
</svg>
