<svg width="800" height="254" viewBox="0 0 800 254" fill="none" xmlns="http://www.w3.org/2000/svg">
<path d="M330.69 63V142.349C330.69 149.225 328.691 154.476 324.694 158.105C320.791 161.733 315.271 163.548 308.132 163.548C306.419 163.548 304.372 163.404 301.993 163.118C299.709 162.927 297.472 162.593 295.283 162.115C293.093 161.733 291.333 161.256 290 160.683L292.284 146.503H299.28C305.753 146.503 308.989 143.83 308.989 138.482V63H330.69Z" fill="white"/>
<path d="M386.096 89.2111C391.997 89.2111 396.994 90.0228 401.087 91.646C405.18 93.1738 408.273 95.8474 410.367 99.6669C412.556 103.391 413.651 108.547 413.651 115.136V161.829H396.804L393.805 146.503L392.378 144.355V114.993C392.378 111.651 391.569 109.216 389.951 107.688C388.428 106.16 385.477 105.396 381.099 105.396C377.482 105.396 372.961 105.539 367.535 105.826C362.11 106.017 356.542 106.303 350.831 106.685L348.832 92.6486C352.259 91.9802 356.209 91.4073 360.682 90.9299C365.156 90.4525 369.629 90.0705 374.103 89.784C378.576 89.4021 382.574 89.2111 386.096 89.2111ZM404.942 118.287L404.799 130.175L373.389 130.318C370.819 130.318 368.963 130.939 367.821 132.18C366.774 133.421 366.25 135.093 366.25 137.193V140.631C366.25 143.018 366.917 144.88 368.249 146.217C369.582 147.458 371.723 148.079 374.674 148.079C377.149 148.079 379.814 147.554 382.669 146.503C385.62 145.453 388.523 143.973 391.378 142.063C394.234 140.153 396.756 137.909 398.945 135.331V144.498C398.089 145.93 396.804 147.745 395.09 149.941C393.472 152.041 391.378 154.142 388.808 156.243C386.238 158.248 383.24 159.967 379.814 161.399C376.387 162.831 372.485 163.548 368.106 163.548C363.823 163.548 359.968 162.784 356.542 161.256C353.115 159.728 350.403 157.484 348.404 154.524C346.405 151.564 345.406 147.888 345.406 143.495V136.191C345.406 130.557 347.309 126.164 351.117 123.013C354.924 119.862 360.159 118.287 366.821 118.287H404.942Z" fill="white"/>
<path d="M500.657 91.0731L475.386 162.688C474.244 166.221 472.626 169.754 470.532 173.287C468.533 176.916 465.963 180.162 462.822 183.027C459.777 185.891 456.064 188.04 451.686 189.472C447.403 191 442.311 191.382 436.41 190.618L434.839 178.587C440.645 177.059 445.166 175.006 448.402 172.428C451.639 169.85 454.161 166.46 455.969 162.258L460.395 152.376C461.252 150.275 462.061 147.745 462.822 144.784C463.679 141.729 464.393 139.103 464.964 136.907L478.099 91.0731H500.657ZM444.69 91.0731L458.111 136.907C458.492 138.721 458.872 140.535 459.253 142.349C459.634 144.164 459.967 145.978 460.252 147.792H464.107L457.397 161.829H452.257C450.639 161.829 449.211 161.351 447.974 160.397C446.737 159.442 445.88 158.2 445.404 156.673L422.132 91.0731H444.69Z" fill="white"/>
<path d="M546.714 89.2111C552.616 89.2111 557.613 90.0228 561.705 91.646C565.798 93.1738 568.892 95.8474 570.986 99.6669C573.175 103.391 574.269 108.547 574.269 115.136V161.829H557.422L554.424 146.503L552.996 144.355V114.993C552.996 111.651 552.187 109.216 550.569 107.688C549.046 106.16 546.096 105.396 541.717 105.396C538.1 105.396 533.579 105.539 528.154 105.826C522.729 106.017 517.161 106.303 511.45 106.685L509.451 92.6486C512.877 91.9802 516.827 91.4073 521.301 90.9299C525.774 90.4525 530.248 90.0705 534.722 89.784C539.195 89.4021 543.193 89.2111 546.714 89.2111ZM565.56 118.287L565.418 130.175L534.008 130.318C531.438 130.318 529.582 130.939 528.44 132.18C527.393 133.421 526.869 135.093 526.869 137.193V140.631C526.869 143.018 527.535 144.88 528.868 146.217C530.2 147.458 532.342 148.079 535.293 148.079C537.767 148.079 540.432 147.554 543.288 146.503C546.238 145.453 549.142 143.973 551.997 142.063C554.852 140.153 557.375 137.909 559.564 135.331V144.498C558.707 145.93 557.422 147.745 555.709 149.941C554.091 152.041 551.997 154.142 549.427 156.243C546.857 158.248 543.859 159.967 540.432 161.399C537.006 162.831 533.103 163.548 528.725 163.548C524.442 163.548 520.587 162.784 517.161 161.256C513.734 159.728 511.021 157.484 509.023 154.524C507.024 151.564 506.024 147.888 506.024 143.495V136.191C506.024 130.557 507.928 126.164 511.735 123.013C515.542 119.862 520.777 118.287 527.44 118.287H565.56Z" fill="white"/>
<path d="M639.989 89.2111C653.315 89.2111 659.977 95.752 659.977 108.834V161.829H638.847V115.422C638.847 112.271 638.276 110.123 637.134 108.977C635.992 107.736 634.04 107.115 631.28 107.115C628.234 107.115 625.093 107.736 621.857 108.977C618.621 110.123 614.623 111.937 609.864 114.42L608.865 102.532C613.91 98.2346 619.049 94.9403 624.284 92.6486C629.614 90.357 634.849 89.2111 639.989 89.2111ZM607.865 91.0731L610.293 105.11L612.006 106.972V161.829H590.876V91.0731H607.865Z" fill="white"/>
<path d="M704.178 71.4506V139.198C704.178 141.777 704.749 143.639 705.891 144.784C707.128 145.835 709.127 146.36 711.887 146.36H721.025L723.309 160.683C721.596 161.256 719.502 161.733 717.027 162.115C714.552 162.593 712.078 162.927 709.603 163.118C707.128 163.404 705.034 163.548 703.321 163.548C696.944 163.548 691.947 161.829 688.33 158.391C684.808 154.954 683.047 150.132 683.047 143.925L682.905 71.4506H704.178ZM723.88 91.0731V104.966H670.626V91.7893L684.332 91.0731H723.88Z" fill="white"/>
<path d="M772.445 89.2111C778.346 89.2111 783.343 90.0228 787.436 91.646C791.529 93.1738 794.622 95.8474 796.716 99.6669C798.905 103.391 800 108.547 800 115.136V161.829H783.153L780.155 146.503L778.727 144.355V114.993C778.727 111.651 777.918 109.216 776.3 107.688C774.777 106.16 771.826 105.396 767.448 105.396C763.831 105.396 759.31 105.539 753.885 105.826C748.459 106.017 742.891 106.303 737.18 106.685L735.181 92.6486C738.608 91.9802 742.558 91.4073 747.032 90.9299C751.505 90.4525 755.979 90.0705 760.452 89.784C764.926 89.4021 768.923 89.2111 772.445 89.2111ZM791.291 118.287L791.148 130.175L759.738 130.318C757.168 130.318 755.312 130.939 754.17 132.18C753.123 133.421 752.6 135.093 752.6 137.193V140.631C752.6 143.018 753.266 144.88 754.598 146.217C755.931 147.458 758.073 148.079 761.023 148.079C763.498 148.079 766.163 147.554 769.018 146.503C771.969 145.453 774.872 143.973 777.728 142.063C780.583 140.153 783.105 137.909 785.294 135.331V144.498C784.438 145.93 783.153 147.745 781.44 149.941C779.822 152.041 777.728 154.142 775.158 156.243C772.588 158.248 769.59 159.967 766.163 161.399C762.736 162.831 758.834 163.548 754.456 163.548C750.172 163.548 746.318 162.784 742.891 161.256C739.465 159.728 736.752 157.484 734.753 154.524C732.754 151.564 731.755 147.888 731.755 143.495V136.191C731.755 130.557 733.659 126.164 737.466 123.013C741.273 119.862 746.508 118.287 753.171 118.287H791.291Z" fill="white"/>
<path fill-rule="evenodd" clip-rule="evenodd" d="M114.983 254L115 253.97L115.017 254C121.499 254 126.37 253.497 130.959 252.318C135.287 251.206 139.054 249.557 143.026 247.817L143.384 247.66C175.649 233.537 230 198.999 230 126.894V108.018C230 89.4504 230 75.1204 229.431 64.6582C229.144 59.388 228.699 54.7861 227.959 50.9433C227.248 47.2551 226.112 43.3847 223.894 40.2246C221.656 37.0273 218.372 34.6557 215.131 32.7683C211.757 30.803 207.574 28.8836 202.721 26.9064C193.081 22.9792 179.615 18.3573 162.179 12.373L155.161 9.96748C154.63 9.78538 154.105 9.60529 153.586 9.42726C136.661 3.6227 126.097 0 115.017 0L115 0.0269385L114.983 0C103.903 0 93.3394 3.6227 76.4142 9.42726C75.8951 9.60529 75.3699 9.78538 74.8387 9.96748L67.8209 12.373C50.3854 18.3573 36.9193 22.9792 27.2794 26.9064C22.4261 28.8836 18.2428 30.803 14.8685 32.7683C11.6281 34.6557 8.34438 37.0273 6.10562 40.2246C3.88822 43.3847 2.75152 47.2551 2.04106 50.9433C1.30082 54.7861 0.856005 59.388 0.569244 64.6582C-3.35477e-05 75.1205 -1.8807e-05 89.4504 2.19561e-07 108.019V126.894C2.19561e-07 198.999 54.3507 233.537 86.6163 247.66L86.9743 247.817C90.9465 249.557 94.7129 251.206 99.0405 252.318C103.63 253.497 108.501 254 114.983 254ZM114.983 18.3106C107.304 18.3106 99.7577 20.7788 80.7529 27.2926L74.014 29.6023C56.2206 35.7095 43.2584 40.1628 34.1619 43.8687C29.6214 45.7185 26.344 47.2637 24.0518 48.5988C21.7831 49.9202 21.1251 50.6724 21.0685 50.7372L21.0645 50.7417C21.0643 50.7419 21.0644 50.7416 21.065 50.7408L21.0615 50.7458L21.0598 50.7487C21.0431 50.7769 20.9107 51.0016 20.7202 51.5363C20.4923 52.1763 20.2354 53.1062 19.9836 54.4136C19.4735 57.0616 19.0848 60.7125 18.8158 65.655C18.2771 75.5568 18.2737 89.3853 18.2737 108.345V126.894C18.2737 187.694 63.6301 217.617 93.9315 230.881C95.0115 231.354 95.977 231.775 96.8604 232.152C97.5065 222.818 99.5212 194.666 100.991 184.588C101.242 182.869 101.444 181.361 101.622 180.029C102.703 171.938 102.92 170.317 108.043 167.187C112.222 164.633 122.523 166.991 128.879 168.446C131.596 169.068 133.592 169.525 134.079 169.362C135.706 168.818 136.249 166.643 134.622 165.012C132.994 163.38 121.061 154.68 111.297 158.486C101.534 162.293 93.9399 167.731 89.6006 171.537C85.2612 175.343 79.837 174.256 76.04 170.449C76.04 170.449 70.0734 175.343 68.9885 169.906C68.9885 169.906 62.4795 174.256 60.3098 169.906C60.3098 169.906 57.0553 181.869 47.8341 179.15C47.8341 179.15 54.8856 158.486 55.428 141.629C55.5365 137.66 55.8077 133.527 56.3501 129.503C58.3026 128.413 61.0439 125.381 63.9694 122.146C66.733 119.089 69.6608 115.851 72.2431 113.897C76.1768 110.939 73.3747 116.323 70.5416 121.766C68.6869 125.33 66.8188 128.919 66.8188 130.21C66.8188 131.739 69.2022 130.521 72.9076 128.627C77.1076 126.479 83.0063 123.464 89.0581 122.597C100.449 120.966 105.873 139.998 105.873 143.261C105.873 145.326 106.525 145.648 107.279 146.02C107.716 146.236 108.187 146.468 108.585 147.067C109.67 148.698 107.5 151.417 107.5 151.417L118.891 144.892C110.336 144.892 107.384 135.531 106.136 131.573C106.038 131.265 105.952 130.989 105.873 130.754C104.788 127.491 108.043 130.21 108.585 132.929C109.128 135.648 110.213 135.648 113.467 135.104C115.434 134.775 115.222 133.454 114.985 131.98C114.83 131.014 114.665 129.983 115.094 129.122C116.179 126.947 112.925 123.685 111.297 122.597C109.67 121.51 119.434 124.772 121.603 125.86C122.73 126.424 122.541 124.791 122.326 122.937C122.127 121.22 121.906 119.314 122.688 118.791C124.316 117.703 125.4 120.422 125.943 122.597C125.995 122.806 126.032 123.065 126.074 123.361C126.472 126.14 127.329 132.124 145.47 129.666C165.54 126.947 169.337 114.44 170.421 108.459C171.506 102.477 163.37 98.6709 164.997 101.39C166.624 104.109 166.082 110.634 161.743 111.178C159.916 111.407 158.281 111.154 157.203 110.987C155.721 110.758 155.29 110.691 156.861 112.265C159.573 114.984 155.776 114.984 147.097 113.897C138.419 112.809 130.282 116.072 127.57 117.703C124.858 119.334 122.146 104.109 122.146 104.109C122.146 104.109 118.349 107.915 118.891 111.722C119.434 115.528 118.349 118.247 114.01 120.422C111.54 121.66 109.949 120.608 108.836 119.873C107.994 119.316 107.426 118.941 106.958 119.878C106.436 120.925 107.421 121.971 108.462 123.078C109.586 124.272 110.776 125.536 110.213 126.947C109.555 128.596 106.703 126.646 104.439 125.097C102.97 124.092 101.747 123.257 101.534 123.685C100.991 124.772 99.9066 126.947 96.652 122.053C93.3975 117.159 84.7188 118.247 78.2097 120.966C73.1754 123.069 73.3327 122.569 73.9133 120.725C74.0834 120.185 74.2899 119.53 74.4128 118.791C74.5832 117.766 75.2353 116.58 75.8648 115.435C77.239 112.936 78.505 110.634 74.4128 110.634C69.531 110.634 60.2013 121.346 57.0553 125.098C59.0622 113.734 63.2389 103.13 71.7006 96.4958C84.1763 86.7078 92.8551 85.0765 99.9066 85.0765C99.9066 85.0765 104.788 80.1825 103.704 79.0949C102.619 78.0074 103.704 75.8323 106.416 74.2009C106.416 74.2009 106.416 42.6619 141.131 40.4868C175.846 38.3117 200.255 73.6571 191.576 103.021C191.576 103.021 200.655 95.9744 211.712 92.8842C211.678 81.5734 211.564 72.6378 211.184 65.655C210.915 60.7125 210.527 57.0616 210.016 54.4136C209.765 53.1062 209.508 52.1763 209.28 51.5363C209.089 51.0018 208.957 50.7771 208.94 50.7487L208.939 50.7458L208.935 50.7408C208.936 50.7428 208.935 50.7416 208.932 50.7372C208.875 50.6724 208.217 49.9202 205.948 48.5988C203.656 47.2637 200.379 45.7185 195.838 43.8687C186.742 40.1628 173.779 35.7095 155.986 29.6023L149.247 27.2926C130.242 20.7788 122.696 18.3106 115.017 18.3106L115 18.2853L114.983 18.3106ZM211.724 99.8508C198.629 106.082 189.418 117.971 191.033 136.191C192.088 148.084 198.011 159.335 203.822 167.758C205.283 164.276 206.572 160.636 207.662 156.834C197.681 147.02 198.371 133.014 200.797 119.878C201.941 113.685 206.656 108.363 211.726 104.278C211.726 102.768 211.725 101.292 211.724 99.8508ZM211.726 110.115C203.159 118.496 196.823 132.071 209.05 151.438C210.773 143.877 211.726 135.71 211.726 126.894V110.115ZM109.67 94.3207C107.915 93.8808 107.935 93.4408 108.006 91.8492C108.023 91.4734 108.043 91.0335 108.043 90.5142C108.043 87.7953 109.67 86.164 109.67 86.164C109.67 86.164 116.179 92.6893 118.891 94.3207C118.891 94.3207 111.84 94.8645 109.67 94.3207ZM131.367 107.915C131.367 107.915 130.825 109.003 131.367 107.371C131.909 105.74 127.57 102.477 127.57 102.477C132.994 97.5833 130.282 92.6893 128.112 92.1456C125.943 91.6018 126.485 90.5142 128.112 87.7954C129.74 85.0765 128.113 82.9014 124.858 80.7263C121.603 78.5511 123.773 75.2885 126.485 72.0258C129.197 68.7632 147.64 57.3438 157.403 75.8323C167.167 94.3207 131.367 107.915 131.367 107.915ZM140.046 132.385C163.37 134.016 172.591 118.791 172.591 118.791C176.93 127.491 165.54 133.473 165.54 133.473C166.033 133.473 166.506 133.47 166.96 133.468C173.495 133.436 176.163 133.423 180.727 140.542C184.661 146.676 183.312 154.93 182.639 159.042C182.477 160.033 182.355 160.783 182.355 161.205C182.355 162.126 182.257 162.072 181.445 161.621C180.339 161.007 177.908 159.657 172.591 159.03C163.37 157.943 140.046 132.385 140.046 132.385ZM166.082 178.062C186.694 168.274 186.152 157.943 184.524 143.804C182.897 129.666 172.591 130.21 172.591 130.21C179.643 126.403 173.676 115.528 173.676 115.528C180.185 120.966 187.779 127.491 191.576 150.33C195.373 173.168 166.082 178.062 166.082 178.062Z" fill="white"/>
</svg>
