<svg width="721" height="188" viewBox="0 0 721 188" fill="none" xmlns="http://www.w3.org/2000/svg">
<path fill-rule="evenodd" clip-rule="evenodd" d="M15 68.8872V22.0126C28.0858 18.0353 49.4409 14.9775 75 14.9775C100.559 14.9775 121.914 18.0353 135 22.0126V112.331C135 127.345 126.963 140.501 114.879 147.716L107.86 151.762L107.861 151.763L60.0012 179.353L75 188L122.471 160.633C138.955 150.84 150 132.874 150 112.331V11.7836C135.973 4.78435 107.652 0 75 0C42.3475 0 14.0271 4.78435 0 11.7836V112.331C0 132.874 11.0448 150.84 27.5285 160.633L45.0972 170.762L100.409 138.875L100.362 138.795L103.483 136.983C113.373 131.066 120 120.209 120 107.796V33.6994C111.563 31.3591 94.5915 29.955 75 29.955C63.767 29.955 53.3955 30.4166 45 31.2516V46.3076C52.6643 45.4797 63.0172 44.9325 75 44.9325C86.9828 44.9325 97.3357 45.4797 105 46.3076V107.796C105 114.734 101.331 120.776 95.8452 124.092L75 136.194V136.229L60.3664 144.665C57.7058 138 54.9045 128.982 53.3254 118.455C53.4117 118.769 54.4514 119.715 58.115 121.341C56.6052 118.681 53.9588 111.711 55.4508 105.114C55.8948 105.823 57.2091 107.561 58.9142 108.838C58.559 105.025 58.3014 96.4519 61.312 95.537C67.4397 93.6749 79.9615 93.9409 97.5452 99.2613C98.1668 93.4088 93.7087 79.3629 70.9031 69.999C71.1695 68.4028 71.2761 64.6785 69.571 62.5504C69.8374 63.7031 70.2104 65.9022 69.571 65.4766C69.4442 65.3922 69.2301 65.1336 68.9151 64.753C67.2445 62.7348 62.7334 57.2849 53.3193 56.1659C54.2962 56.6092 56.2499 57.6556 56.2499 58.294C50.7439 56.9639 36.6414 55.5806 24.2794 60.6882C24.9899 60.7769 26.7305 61.1139 28.0093 61.7523C25.7167 62.4064 20.6603 64.6139 15 68.8872ZM55.4509 66.8068C50.5487 65.317 46.659 66.5407 45.3269 67.3388C47.1918 67.8709 50.0692 67.8709 50.9217 67.8709C51.6456 67.8709 51.7549 68.1164 52.0845 68.8577C52.2402 69.2076 52.4449 69.6679 52.7867 70.2651C53.8523 72.1272 55.4509 72.3932 57.5822 71.5952C58.6869 71.1815 60.0063 70.9823 61.1323 70.8122C62.1788 70.6542 63.0585 70.5214 63.4435 70.2651C64.2427 69.733 61.5785 68.6689 55.4509 66.8068Z" fill="white"/>
<path d="M233.135 141.536C227.077 141.536 221.487 140.427 216.367 138.208C211.333 135.904 207.194 132.661 203.951 128.48L215.471 114.656C220.335 121.227 225.882 124.512 232.111 124.512C240.559 124.512 244.783 119.563 244.783 109.664V67.0399H213.295V50.3999H265.391V108.512C265.391 119.52 262.661 127.797 257.199 133.344C251.738 138.805 243.717 141.536 233.135 141.536Z" fill="white"/>
<path d="M312.241 70.1119C322.908 70.1119 331.1 72.6719 336.817 77.7919C342.535 82.8266 345.393 90.4639 345.393 100.704V140H326.705V131.424C322.951 137.824 315.953 141.024 305.713 141.024C300.423 141.024 295.815 140.128 291.889 138.336C288.049 136.544 285.105 134.069 283.057 130.912C281.009 127.755 279.985 124.171 279.985 120.16C279.985 113.76 282.375 108.725 287.153 105.056C292.017 101.387 299.484 99.5519 309.553 99.5519H325.425C325.425 95.1999 324.103 91.8719 321.457 89.5679C318.812 87.1786 314.844 85.9839 309.553 85.9839C305.884 85.9839 302.257 86.5812 298.673 87.7759C295.175 88.8852 292.188 90.4212 289.713 92.3839L282.545 78.4319C286.3 75.7866 290.78 73.7386 295.985 72.2879C301.276 70.8372 306.695 70.1119 312.241 70.1119ZM310.705 127.584C314.119 127.584 317.148 126.816 319.793 125.28C322.439 123.659 324.316 121.312 325.425 118.24V111.2H311.729C303.537 111.2 299.441 113.888 299.441 119.264C299.441 121.824 300.423 123.872 302.385 125.408C304.433 126.859 307.207 127.584 310.705 127.584Z" fill="white"/>
<path d="M430.567 71.1359L399.463 144.224C396.306 152.16 392.381 157.749 387.687 160.992C383.079 164.235 377.49 165.856 370.919 165.856C367.335 165.856 363.794 165.301 360.295 164.192C356.797 163.083 353.938 161.547 351.719 159.584L359.015 145.376C360.551 146.741 362.301 147.808 364.263 148.576C366.311 149.344 368.317 149.728 370.279 149.728C373.01 149.728 375.229 149.045 376.935 147.68C378.642 146.4 380.178 144.224 381.543 141.152L381.799 140.512L351.975 71.1359H372.583L391.911 117.856L411.367 71.1359H430.567Z" fill="white"/>
<path d="M464.241 70.1119C474.908 70.1119 483.1 72.6719 488.817 77.7919C494.535 82.8266 497.393 90.4639 497.393 100.704V140H478.705V131.424C474.951 137.824 467.953 141.024 457.713 141.024C452.423 141.024 447.815 140.128 443.889 138.336C440.049 136.544 437.105 134.069 435.057 130.912C433.009 127.755 431.985 124.171 431.985 120.16C431.985 113.76 434.375 108.725 439.153 105.056C444.017 101.387 451.484 99.5519 461.553 99.5519H477.425C477.425 95.1999 476.103 91.8719 473.457 89.5679C470.812 87.1786 466.844 85.9839 461.553 85.9839C457.884 85.9839 454.257 86.5812 450.673 87.7759C447.175 88.8852 444.188 90.4212 441.713 92.3839L434.545 78.4319C438.3 75.7866 442.78 73.7386 447.985 72.2879C453.276 70.8372 458.695 70.1119 464.241 70.1119ZM462.705 127.584C466.119 127.584 469.148 126.816 471.793 125.28C474.439 123.659 476.316 121.312 477.425 118.24V111.2H463.729C455.537 111.2 451.441 113.888 451.441 119.264C451.441 121.824 452.423 123.872 454.385 125.408C456.433 126.859 459.207 127.584 462.705 127.584Z" fill="white"/>
<path d="M557.321 70.1119C565.854 70.1119 572.724 72.6719 577.929 77.7919C583.22 82.9119 585.865 90.5066 585.865 100.576V140H565.897V103.648C565.897 98.1866 564.703 94.1332 562.313 91.4879C559.924 88.7572 556.468 87.3919 551.945 87.3919C546.911 87.3919 542.9 88.9706 539.913 92.1279C536.927 95.1999 535.433 99.8079 535.433 105.952V140H515.465V71.1359H534.537V79.1999C537.183 76.2986 540.468 74.0799 544.393 72.5439C548.319 70.9226 552.628 70.1119 557.321 70.1119Z" fill="white"/>
<path d="M648.381 136.672C646.419 138.123 643.987 139.232 641.085 140C638.269 140.683 635.283 141.024 632.125 141.024C623.933 141.024 617.576 138.933 613.053 134.752C608.616 130.571 606.397 124.427 606.397 116.32V88.0319H595.773V72.6719H606.397V55.9039H626.365V72.6719H643.517V88.0319H626.365V116.064C626.365 118.965 627.091 121.227 628.541 122.848C630.077 124.384 632.211 125.152 634.941 125.152C638.099 125.152 640.787 124.299 643.005 122.592L648.381 136.672Z" fill="white"/>
<path d="M687.366 70.1119C698.033 70.1119 706.225 72.6719 711.942 77.7919C717.66 82.8266 720.518 90.4639 720.518 100.704V140H701.83V131.424C698.076 137.824 691.078 141.024 680.838 141.024C675.547 141.024 670.94 140.128 667.014 138.336C663.174 136.544 660.23 134.069 658.182 130.912C656.134 127.755 655.11 124.171 655.11 120.16C655.11 113.76 657.5 108.725 662.278 105.056C667.142 101.387 674.609 99.5519 684.678 99.5519H700.55C700.55 95.1999 699.228 91.8719 696.582 89.5679C693.937 87.1786 689.969 85.9839 684.678 85.9839C681.009 85.9839 677.382 86.5812 673.798 87.7759C670.3 88.8852 667.313 90.4212 664.838 92.3839L657.67 78.4319C661.425 75.7866 665.905 73.7386 671.11 72.2879C676.401 70.8372 681.82 70.1119 687.366 70.1119ZM685.83 127.584C689.244 127.584 692.273 126.816 694.918 125.28C697.564 123.659 699.441 121.312 700.55 118.24V111.2H686.854C678.662 111.2 674.566 113.888 674.566 119.264C674.566 121.824 675.547 123.872 677.51 125.408C679.558 126.859 682.332 127.584 685.83 127.584Z" fill="white"/>
</svg>
