<svg width="800" height="256" viewBox="0 0 800 256" fill="none" xmlns="http://www.w3.org/2000/svg">
<path d="M330.69 63V142.35C330.69 149.225 328.691 154.476 324.694 158.105C320.791 161.733 315.271 163.548 308.132 163.548C306.419 163.548 304.372 163.404 301.993 163.118C299.709 162.927 297.472 162.593 295.283 162.115C293.093 161.733 291.333 161.256 290 160.683L292.284 146.503H299.28C305.753 146.503 308.989 143.83 308.989 138.482V63H330.69Z" fill="#60A5FA"/>
<path d="M386.096 89.2111C391.997 89.2111 396.994 90.0228 401.087 91.646C405.18 93.1738 408.273 95.8475 410.367 99.6669C412.556 103.391 413.651 108.547 413.651 115.136V161.829H396.804L393.805 146.503L392.378 144.355V114.993C392.378 111.651 391.569 109.216 389.951 107.688C388.428 106.16 385.477 105.396 381.099 105.396C377.482 105.396 372.961 105.539 367.535 105.826C362.11 106.017 356.542 106.303 350.831 106.685L348.832 92.6486C352.259 91.9802 356.209 91.4073 360.682 90.9299C365.156 90.4525 369.629 90.0705 374.103 89.784C378.576 89.4021 382.574 89.2111 386.096 89.2111ZM404.942 118.287L404.799 130.175L373.389 130.318C370.819 130.318 368.963 130.939 367.821 132.18C366.774 133.421 366.25 135.093 366.25 137.193V140.631C366.25 143.018 366.917 144.88 368.249 146.217C369.582 147.458 371.723 148.079 374.674 148.079C377.149 148.079 379.814 147.554 382.669 146.503C385.62 145.453 388.523 143.973 391.378 142.063C394.234 140.153 396.756 137.909 398.945 135.331V144.498C398.089 145.93 396.804 147.745 395.09 149.941C393.472 152.041 391.378 154.142 388.808 156.243C386.238 158.248 383.24 159.967 379.814 161.399C376.387 162.831 372.485 163.548 368.106 163.548C363.823 163.548 359.968 162.784 356.542 161.256C353.115 159.728 350.403 157.484 348.404 154.524C346.405 151.564 345.406 147.888 345.406 143.495V136.191C345.406 130.557 347.309 126.165 351.117 123.013C354.924 119.862 360.159 118.287 366.821 118.287H404.942Z" fill="#60A5FA"/>
<path d="M500.657 91.0731L475.386 162.688C474.244 166.221 472.626 169.754 470.532 173.287C468.533 176.916 465.963 180.162 462.822 183.027C459.777 185.891 456.064 188.04 451.686 189.472C447.403 191 442.311 191.382 436.41 190.618L434.839 178.587C440.645 177.059 445.166 175.006 448.402 172.428C451.639 169.85 454.161 166.46 455.969 162.259L460.395 152.376C461.252 150.275 462.061 147.745 462.822 144.784C463.679 141.729 464.393 139.103 464.964 136.907L478.099 91.0731H500.657ZM444.69 91.0731L458.111 136.907C458.492 138.721 458.872 140.535 459.253 142.35C459.634 144.164 459.967 145.978 460.252 147.792H464.107L457.397 161.829H452.257C450.639 161.829 449.211 161.351 447.974 160.397C446.737 159.442 445.88 158.2 445.404 156.673L422.132 91.0731H444.69Z" fill="#60A5FA"/>
<path d="M546.714 89.2111C552.616 89.2111 557.613 90.0228 561.705 91.646C565.798 93.1738 568.892 95.8475 570.986 99.6669C573.175 103.391 574.269 108.547 574.269 115.136V161.829H557.422L554.424 146.503L552.996 144.355V114.993C552.996 111.651 552.187 109.216 550.569 107.688C549.046 106.16 546.096 105.396 541.717 105.396C538.1 105.396 533.579 105.539 528.154 105.826C522.729 106.017 517.161 106.303 511.45 106.685L509.451 92.6486C512.877 91.9802 516.827 91.4073 521.301 90.9299C525.774 90.4525 530.248 90.0705 534.722 89.784C539.195 89.4021 543.193 89.2111 546.714 89.2111ZM565.56 118.287L565.418 130.175L534.008 130.318C531.438 130.318 529.582 130.939 528.44 132.18C527.393 133.421 526.869 135.093 526.869 137.193V140.631C526.869 143.018 527.535 144.88 528.868 146.217C530.2 147.458 532.342 148.079 535.293 148.079C537.767 148.079 540.432 147.554 543.288 146.503C546.239 145.453 549.142 143.973 551.997 142.063C554.852 140.153 557.375 137.909 559.564 135.331V144.498C558.707 145.93 557.422 147.745 555.709 149.941C554.091 152.041 551.997 154.142 549.427 156.243C546.857 158.248 543.859 159.967 540.432 161.399C537.006 162.831 533.103 163.548 528.725 163.548C524.442 163.548 520.587 162.784 517.161 161.256C513.734 159.728 511.021 157.484 509.023 154.524C507.024 151.564 506.024 147.888 506.024 143.495V136.191C506.024 130.557 507.928 126.165 511.735 123.013C515.542 119.862 520.777 118.287 527.44 118.287H565.56Z" fill="#60A5FA"/>
<path d="M639.989 89.2111C653.315 89.2111 659.977 95.752 659.977 108.834V161.829H638.847V115.422C638.847 112.271 638.276 110.123 637.134 108.977C635.992 107.736 634.04 107.115 631.28 107.115C628.234 107.115 625.093 107.736 621.857 108.977C618.621 110.123 614.623 111.937 609.864 114.42L608.865 102.532C613.91 98.2346 619.049 94.9403 624.284 92.6486C629.614 90.357 634.849 89.2111 639.989 89.2111ZM607.865 91.0731L610.293 105.11L612.006 106.972V161.829H590.876V91.0731H607.865Z" fill="#60A5FA"/>
<path d="M704.178 71.4506V139.198C704.178 141.777 704.749 143.639 705.891 144.784C707.128 145.835 709.127 146.36 711.887 146.36H721.025L723.309 160.683C721.596 161.256 719.502 161.733 717.027 162.115C714.552 162.593 712.078 162.927 709.603 163.118C707.128 163.404 705.034 163.548 703.321 163.548C696.944 163.548 691.947 161.829 688.33 158.391C684.808 154.954 683.047 150.132 683.047 143.925L682.905 71.4506H704.178ZM723.88 91.0731V104.966H670.626V91.7893L684.332 91.0731H723.88Z" fill="#60A5FA"/>
<path d="M772.445 89.2111C778.346 89.2111 783.343 90.0228 787.436 91.646C791.529 93.1738 794.622 95.8475 796.716 99.6669C798.905 103.391 800 108.547 800 115.136V161.829H783.153L780.155 146.503L778.727 144.355V114.993C778.727 111.651 777.918 109.216 776.3 107.688C774.777 106.16 771.826 105.396 767.448 105.396C763.831 105.396 759.31 105.539 753.885 105.826C748.459 106.017 742.891 106.303 737.18 106.685L735.181 92.6486C738.608 91.9802 742.558 91.4073 747.032 90.9299C751.505 90.4525 755.979 90.0705 760.452 89.784C764.926 89.4021 768.923 89.2111 772.445 89.2111ZM791.291 118.287L791.148 130.175L759.738 130.318C757.168 130.318 755.312 130.939 754.17 132.18C753.123 133.421 752.6 135.093 752.6 137.193V140.631C752.6 143.018 753.266 144.88 754.599 146.217C755.931 147.458 758.073 148.079 761.023 148.079C763.498 148.079 766.163 147.554 769.018 146.503C771.969 145.453 774.872 143.973 777.728 142.063C780.583 140.153 783.105 137.909 785.295 135.331V144.498C784.438 145.93 783.153 147.745 781.44 149.941C779.822 152.041 777.728 154.142 775.158 156.243C772.588 158.248 769.59 159.967 766.163 161.399C762.737 162.831 758.834 163.548 754.456 163.548C750.173 163.548 746.318 162.784 742.891 161.256C739.465 159.728 736.752 157.484 734.753 154.524C732.754 151.564 731.755 147.888 731.755 143.495V136.191C731.755 130.557 733.659 126.165 737.466 123.013C741.273 119.862 746.508 118.287 753.171 118.287H791.291Z" fill="#60A5FA"/>
<path d="M198.163 117.673C195.484 129.887 194.591 142.796 203.224 152.627C203.819 150.144 204.315 147.662 204.812 145.08C196.774 131.277 199.751 120.552 206.201 112.807V109.133C206.201 107.941 206.201 106.849 206.201 105.657C202.331 109.133 199.155 113.204 198.163 117.673Z" fill="#60A5FA"/>
<path d="M131.38 168.714C130.884 168.912 128.801 168.416 126.022 167.721C119.473 166.231 108.855 163.749 104.489 166.43C99.2299 169.707 98.9323 171.296 97.8407 179.637C97.6423 181.027 97.4438 182.616 97.1461 184.304C95.9554 192.248 94.4669 211.215 93.5738 223.926C95.0623 224.621 96.4515 225.216 97.7415 225.812C105.581 229.189 107.367 229.983 116 229.983C124.633 229.983 126.419 229.189 134.258 225.812C147.555 220.053 166.508 209.626 181.392 193.142C189.827 183.808 196.178 173.48 200.246 162.16C195.384 154.216 191.018 144.484 190.125 134.355C188.736 118.169 195.582 106.849 206.2 99.8976C206.2 97.1172 206.2 94.3367 206.2 91.5563C197.369 95.1311 190.72 100.196 190.72 100.196C199.651 69.9085 174.446 33.4647 138.624 35.6494C102.802 37.9333 102.802 70.405 102.802 70.405C100.024 72.0931 98.833 74.3771 100.024 75.4694C101.115 76.5617 96.0546 81.6261 96.0546 81.6261C88.8108 81.6261 79.7808 83.3142 66.8809 93.443C58.1487 100.295 53.7826 111.218 51.798 122.936C55.0725 119.063 64.6979 108.04 69.7586 108.04C74.0255 108.04 72.6363 110.424 71.2471 113.005C70.5524 114.197 69.9571 115.389 69.7586 116.481C69.6594 117.275 69.4609 117.871 69.2625 118.467C68.6671 120.354 68.4686 120.85 73.7278 118.666C80.4755 115.885 89.4062 114.694 92.78 119.758C96.1538 124.822 97.2453 122.538 97.8407 121.446C98.0392 121.049 99.3292 121.843 100.818 122.936C103.199 124.524 106.077 126.511 106.771 124.822C107.367 123.333 106.077 122.042 104.985 120.85C103.894 119.659 102.901 118.666 103.398 117.573C103.894 116.58 104.489 116.978 105.382 117.573C106.573 118.368 108.161 119.46 110.741 118.169C115.206 115.885 116.298 113.105 115.801 109.232C115.206 105.26 119.175 101.387 119.175 101.387C119.175 101.387 121.954 117.077 124.732 115.389C127.511 113.701 135.945 110.324 144.876 111.417C153.807 112.509 157.776 112.509 154.997 109.729C153.41 108.14 153.807 108.14 155.394 108.438C156.486 108.636 158.173 108.835 160.058 108.636C164.523 108.04 165.119 101.387 163.432 98.5074C161.745 95.7269 170.179 99.5997 168.989 105.756C167.897 111.913 163.928 124.822 143.189 127.603C124.434 130.185 123.541 123.929 123.144 121.049C123.144 120.751 123.045 120.453 123.045 120.254C122.45 117.971 121.358 115.19 119.671 116.282C118.878 116.779 119.076 118.765 119.274 120.552C119.473 122.439 119.671 124.127 118.481 123.531C116.198 122.439 106.176 119.063 107.863 120.155C109.55 121.248 112.924 124.624 111.832 126.908C111.435 127.801 111.534 128.894 111.733 129.887C111.931 131.376 112.229 132.767 110.145 133.064C106.771 133.66 105.68 133.66 105.085 130.78C104.489 128 101.115 125.22 102.306 128.497C102.405 128.695 102.505 128.993 102.604 129.39C103.894 133.462 106.97 143.094 115.801 143.094L103.993 149.846C103.993 149.846 106.275 147.066 105.085 145.378C104.688 144.782 104.191 144.484 103.695 144.286C102.901 143.888 102.207 143.59 102.207 141.406C102.207 138.03 96.65 118.368 84.8416 120.056C78.5901 120.95 72.537 124.028 68.1709 126.312C64.3009 128.298 61.9194 129.49 61.9194 127.901C61.9194 126.61 63.8048 122.836 65.7894 119.162C68.6671 113.502 71.644 108.04 67.5755 111.019C64.8963 113.005 61.9194 116.382 59.0418 119.559C56.0648 122.936 53.1872 126.014 51.2026 127.106C50.6072 131.277 50.4087 135.547 50.2103 139.618C49.6149 156.996 42.3711 178.346 42.3711 178.346C51.8972 181.127 55.271 168.813 55.271 168.813C57.5533 173.282 64.2017 168.813 64.2017 168.813C65.2932 174.374 71.4455 169.409 71.4455 169.409C75.4147 173.381 80.9716 174.473 85.437 170.501C89.9023 166.529 97.7415 160.968 107.863 156.996C117.984 153.024 130.289 162.061 131.976 163.749C133.564 165.933 133.067 168.118 131.38 168.714ZM106.077 91.2584C104.291 90.7619 104.291 90.3647 104.39 88.6765C104.39 88.2793 104.39 87.8821 104.39 87.2863C104.39 84.5058 106.077 82.8177 106.077 82.8177C106.077 82.8177 112.824 89.5702 115.603 91.2584C115.603 91.2584 108.359 91.8542 106.077 91.2584ZM128.503 105.359C128.503 105.359 127.907 106.452 128.503 104.763C129.098 103.075 124.534 99.699 124.534 99.699C130.091 94.6346 127.312 89.5702 125.129 89.0737C122.847 88.4779 123.442 87.3856 125.129 84.6051C126.816 81.8247 125.129 79.5408 121.755 77.3561C118.381 75.0722 120.664 71.6959 123.442 68.419C126.221 65.0427 145.273 53.2258 155.394 72.391C165.516 91.2584 128.503 105.359 128.503 105.359ZM190.72 149.052C194.689 172.587 164.424 177.651 164.424 177.651C185.759 167.522 185.163 156.897 183.476 142.299C181.789 127.702 171.172 128.298 171.172 128.298C178.416 124.326 172.263 113.105 172.263 113.105C179.011 118.765 186.85 125.517 190.72 149.052ZM171.172 116.58C175.637 125.517 163.928 131.773 163.928 131.773C164.424 131.773 164.92 131.773 165.416 131.773C172.164 131.773 174.943 131.773 179.606 139.023C183.675 145.378 182.286 153.918 181.591 158.088C181.392 159.081 181.293 159.876 181.293 160.273C181.293 161.266 181.194 161.167 180.4 160.67C179.209 160.075 176.729 158.684 171.271 157.989C161.745 156.897 137.632 130.483 137.632 130.483C161.646 132.27 171.172 116.58 171.172 116.58Z" fill="#60A5FA"/>
<path d="M116 256C102.009 256 96.5509 253.617 87.4217 249.645C71.8426 242.793 49.4166 230.579 31.4559 210.718C10.6176 187.581 0 159.777 0 127.901V109.133C0 65.5392 0 49.2537 6.15227 40.5151C12.3045 31.7766 27.6852 26.5136 68.6672 12.4127L75.5141 10.0295C95.0624 3.37626 104.886 0 116 0V17.8743C107.863 17.8743 98.9324 20.9527 81.2695 26.9108L74.4226 29.294C47.3328 38.6284 23.8152 46.6718 20.7391 50.7432C17.8614 55.1125 17.8614 80.1365 17.8614 109.133V127.901C17.8614 155.209 26.8914 179.041 44.7528 198.604C60.6296 216.081 80.6741 227.103 94.6655 233.161C102.802 236.735 105.879 238.026 116.099 238.026V256H116Z" fill="#60A5FA"/>
<path d="M116.002 256C129.993 256 135.451 253.617 144.58 249.645C160.159 242.793 182.585 230.579 200.546 210.718C221.483 187.68 232.002 159.876 232.002 128V109.232C232.002 65.6385 232.002 49.2537 225.849 40.6144C219.697 31.8759 204.316 26.6129 163.334 12.512L156.487 10.1288C136.939 3.37626 127.115 0 116.002 0V17.8743C124.138 17.8743 133.069 20.9527 150.732 26.9108L157.579 29.294C184.669 38.6284 208.186 46.6718 211.262 50.7432C214.14 55.1125 214.14 80.1365 214.14 109.133V127.901C214.14 155.209 205.11 179.041 187.249 198.604C171.372 216.081 151.327 227.103 137.336 233.161C129.199 236.735 126.123 238.026 115.902 238.026V256H116.002Z" fill="#EF4444"/>
</svg>
